<?xml version="1.0" encoding="UTF-8"?><svg id="a" xmlns="http://www.w3.org/2000/svg" xmlns:xlink="http://www.w3.org/1999/xlink" viewBox="0 0 460 230"><defs><clipPath id="b"><rect x="308.65" y="13.73" width="15.52" height="25.52" style="fill:none; stroke-width:0px;"/></clipPath><clipPath id="c"><rect x="350.38" y="103.81" width="38.16" height="24.56" style="fill:none; stroke-width:0px;"/></clipPath></defs><g style="opacity:.3;"><path d="M458,2v226h-177.58V2h177.58M460,0h-181.58v230h181.58V0h0Z" style="fill:#fff; stroke-width:0px;"/></g><polyline points="163.42 178.55 174.32 178.55 174.32 51.45 163.42 51.45" style="fill:none; stroke:#fff; stroke-dasharray:0 0 3.03 1.82; stroke-miterlimit:10; stroke-width:1.82px;"/><line x1="174.32" y1="115" x2="288" y2="115" style="fill:none; stroke:#fff; stroke-dasharray:0 0 3.03 1.82; stroke-miterlimit:10; stroke-width:1.82px;"/><polyline points="278.42 193.08 267.53 193.08 267.53 36.92 278.42 36.92" style="fill:none; stroke:#fff; stroke-dasharray:0 0 2.77 1.66; stroke-miterlimit:10; stroke-width:1.66px;"/><path d="M331.43,204.2c0,.55-.45,1-1,1h-28.02c-.55,0-1-.45-1-1v-20.6c0-.55.45-1,1-1h28.02c.55,0,1,.45,1,1v20.6ZM330.15,187.25c0-.55-.45-1-1-1h-25.47c-.55,0-1,.45-1,1v15.67c0,.55.45,1,1,1h25.47c.55,0,1-.45,1-1v-15.67Z" style="fill:#8097c7; stroke-width:0px;"/><rect x="302.68" y="186.25" width="27.47" height="17.68" rx="1" ry="1" style="fill:#fff; stroke-width:0px;"/><path d="M295.79,214.78l-.93-4.84h.99l.37,2.37c.04.25.08.51.12.76.04.26.07.52.11.78h.03c.05-.26.1-.52.16-.78.05-.26.1-.51.15-.76l.56-2.37h.83l.56,2.37c.05.25.1.5.15.76s.1.52.15.78h.03c.04-.26.07-.52.11-.78.04-.26.07-.51.11-.76l.39-2.37h.92l-.9,4.84h-1.2l-.54-2.4c-.04-.19-.08-.37-.11-.56-.04-.19-.07-.37-.09-.55h-.03c-.03.18-.07.37-.11.55-.04.19-.07.37-.11.56l-.53,2.4h-1.18Z" style="fill:#fff; stroke-width:0px;"/><path d="M303.36,214.87c-.34,0-.65-.08-.92-.23s-.49-.37-.66-.66c-.16-.29-.25-.63-.25-1.03,0-.3.05-.56.14-.8s.22-.44.39-.6c.16-.17.35-.3.55-.39.2-.09.41-.13.63-.13.33,0,.62.08.84.23.23.15.4.36.51.62.12.26.17.57.17.91,0,.09,0,.17-.01.25,0,.08-.02.15-.03.19h-2.25c.03.2.08.36.18.5.09.14.21.24.35.3.14.07.31.1.49.1.15,0,.29-.02.42-.06s.26-.1.4-.19l.33.59c-.18.12-.38.22-.6.29-.22.07-.45.11-.67.11ZM302.45,212.57h1.5c0-.24-.06-.44-.17-.58s-.29-.22-.53-.22c-.13,0-.25.03-.36.09-.11.06-.21.15-.29.27-.08.12-.13.27-.16.45Z" style="fill:#fff; stroke-width:0px;"/><path d="M307.92,214.87c-.16,0-.33-.04-.5-.12s-.33-.2-.48-.35h-.03l-.08.39h-.75v-5.22h.96v1.31l-.03.59c.15-.13.31-.24.49-.32.18-.08.35-.12.53-.12.3,0,.56.08.77.23s.38.37.5.65c.12.28.17.6.17.98,0,.42-.07.78-.22,1.08-.15.3-.34.52-.58.68s-.49.23-.75.23ZM307.71,214.08c.14,0,.27-.04.39-.13.12-.08.21-.21.28-.39s.1-.39.1-.66c0-.23-.03-.43-.08-.59-.05-.16-.13-.29-.24-.37-.1-.08-.24-.12-.41-.12-.12,0-.24.03-.36.09s-.24.15-.36.28v1.61c.11.1.23.18.34.22s.22.06.32.06Z" style="fill:#fff; stroke-width:0px;"/><path d="M315.94,210.5c-.03.06-.06.13-.08.22-.02.08-.04.16-.06.23-.04.16-.09.34-.14.54-.05.2-.12.4-.2.62s-.17.42-.28.63c-.11.21-.23.41-.36.59-.2.26-.42.51-.68.73-.26.23-.55.43-.88.61-.32.18-.68.34-1.07.46l-.71-.78c.44-.1.81-.23,1.13-.39.32-.15.59-.33.82-.52.23-.2.44-.41.61-.63.14-.18.27-.38.37-.59s.19-.43.25-.64.11-.42.14-.6h-3.04c-.15,0-.3,0-.44,0s-.25.01-.34.02v-.92c.07,0,.14.02.24.03.09,0,.19.02.29.02s.18,0,.25,0h3.03c.07,0,.14,0,.24,0s.18-.02.27-.05l.65.42ZM315.26,209.26c.06.08.12.18.18.28.06.1.12.21.18.31s.1.19.14.27l-.55.23c-.04-.09-.09-.18-.15-.28-.05-.1-.11-.2-.17-.3s-.12-.2-.17-.28l.54-.22ZM316.17,209.1c.06.08.12.17.18.27s.13.21.19.31c.06.1.11.2.15.27l-.54.24c-.07-.14-.16-.29-.25-.45s-.18-.31-.27-.43l.54-.22Z" style="fill:#fff; stroke-width:0px;"/><path d="M323.27,211.66s-.04.09-.07.14c-.02.05-.04.1-.06.13-.1.31-.23.63-.38.94s-.35.6-.59.87c-.33.37-.69.66-1.1.89-.41.23-.82.4-1.24.52l-.65-.74c.49-.1.93-.26,1.31-.46.38-.2.7-.43.95-.69.17-.18.31-.37.42-.57.11-.2.19-.39.25-.57h-3.16c-.08,0-.19,0-.33,0s-.29.01-.42.03v-.85c.14,0,.28.02.41.03s.25.01.35.01h3.24c.1,0,.2,0,.28-.02.08-.01.15-.03.19-.05l.58.36ZM318.82,209.76c.09.01.2.02.33.03.13,0,.24,0,.35,0h2.52c.1,0,.22,0,.36,0,.14,0,.25-.01.35-.03v.84c-.09,0-.2-.01-.34-.02-.14,0-.26,0-.38,0h-2.5c-.1,0-.22,0-.34,0-.12,0-.24,0-.34.01v-.84Z" style="fill:#fff; stroke-width:0px;"/><path d="M330.36,210.81c-.03.07-.05.16-.08.26-.02.11-.04.19-.06.26-.03.15-.06.31-.09.46-.04.16-.08.31-.13.47-.05.16-.11.31-.17.46-.06.15-.13.3-.21.45-.17.32-.4.61-.66.87-.27.26-.57.48-.91.66s-.7.32-1.09.43l-.68-.78c.15-.03.3-.06.47-.11.17-.05.32-.09.45-.15.18-.07.37-.16.55-.26.18-.11.35-.23.51-.38.16-.14.3-.3.42-.48.11-.16.2-.33.28-.52s.14-.38.19-.58.08-.39.11-.58h-3.24v.95c0,.07,0,.16,0,.25,0,.09,0,.17.01.24h-.9c0-.08.02-.17.02-.27,0-.1,0-.19,0-.28v-1.13c0-.07,0-.17,0-.28,0-.11-.01-.21-.03-.28.11.01.22.02.33.03s.22,0,.34,0h3.45c.13,0,.25,0,.33-.02s.16-.03.21-.05l.57.35ZM328.16,209.43c-.01.14-.02.25-.03.34s-.01.17-.01.26v.94h-.91v-.94c0-.09,0-.18-.01-.26,0-.08-.02-.2-.04-.34h1.01Z" style="fill:#fff; stroke-width:0px;"/><path d="M331.75,210.91s.09.02.16.03c.07,0,.15.02.24.02.09,0,.19,0,.3,0h4.29c.17,0,.32,0,.43-.01.11,0,.21-.02.29-.03v.87c-.07,0-.16,0-.28-.01-.12,0-.26,0-.43,0h-4.29c-.11,0-.21,0-.3,0-.09,0-.17,0-.24.01s-.13,0-.17.01v-.89ZM333.9,209.73c0,.06-.02.14-.03.25s-.01.22-.01.35v2.33c0,.1,0,.19,0,.28,0,.09,0,.17.01.24,0,.07,0,.13,0,.17h-.92s.02-.1.02-.17c0-.07,0-.15.01-.24,0-.09,0-.19,0-.28v-2.34c0-.1,0-.19,0-.29,0-.1-.02-.2-.03-.3h.93ZM336.26,211.98c0,.41-.03.77-.09,1.1-.06.33-.16.63-.3.9-.14.27-.34.51-.6.73-.26.22-.58.41-.97.59l-.7-.66c.31-.11.59-.24.82-.37.23-.13.42-.3.57-.5.15-.2.25-.43.33-.72.07-.28.11-.62.11-1.03v-1.74c0-.13,0-.25-.01-.35,0-.1-.02-.19-.03-.26h.93c0,.07-.02.15-.03.26-.01.1-.02.22-.02.35v1.71ZM336.82,209.69c.04.08.09.18.13.29.04.11.08.22.12.32.04.1.07.2.1.29l-.45.14c-.03-.09-.06-.19-.1-.29s-.07-.21-.11-.31-.08-.2-.12-.29l.44-.14ZM337.49,209.48c.04.09.09.18.13.29s.09.21.13.32c.04.1.08.2.1.28l-.45.14c-.04-.14-.1-.29-.16-.45-.06-.16-.13-.31-.2-.44l.44-.14Z" style="fill:#fff; stroke-width:0px;"/><path d="M324.54,183.79c.41,0,.74.33.74.74,0,.2-.08.38-.22.52-.14.14-.33.22-.52.22s-.38-.08-.52-.22c-.14-.14-.22-.33-.22-.52,0-.41.33-.74.74-.74h0Z" style="fill:#fff; stroke-width:0px;"/><path d="M326.97,183.79c.41,0,.74.33.74.74,0,.41-.33.74-.74.74-.2,0-.38-.08-.52-.22-.14-.14-.22-.33-.22-.52,0-.41.33-.74.74-.74h0Z" style="fill:#fff; stroke-width:0px;"/><path d="M329.41,183.79c.41,0,.74.33.74.74s-.33.74-.74.74c-.2,0-.38-.08-.52-.22-.14-.14-.22-.33-.22-.52,0-.41.33-.74.74-.74h0Z" style="fill:#fff; stroke-width:0px;"/><path d="M321.4,191.21h0s-.22-.26-.22-.26c-1.19-1.37-2.91-2.17-4.72-2.18,0,0,0,0,0,0-.01,0-.02,0-.03,0h-.02c-.34,0-.68.03-1.01.08-1.44.24-2.77.97-3.75,2.09,0,0,0,0,0,0l-.22.25h0c-.87,1.11-1.35,2.48-1.35,3.9s.52,2.91,1.46,4.05c1.2,1.44,2.97,2.27,4.85,2.27h.02s.02,0,.03,0c1.86-.01,3.61-.84,4.8-2.27.94-1.13,1.47-2.57,1.47-4.05s-.47-2.77-1.33-3.88ZM319.88,194.81c-.02-.96-.16-1.89-.41-2.73.53-.16,1.01-.35,1.44-.59.75.94,1.19,2.1,1.25,3.31h-2.28ZM310.66,194.81c.06-1.22.5-2.38,1.26-3.33.43.24.92.44,1.47.6-.24.84-.38,1.77-.41,2.73h-2.32ZM312.32,191.04c.06-.06.12-.12.19-.18,0,0,0,0,.01-.01.06-.06.13-.12.2-.17,0,0,0,0,.01-.01.07-.06.14-.11.2-.16,0,0,.02-.01.03-.02.07-.05.14-.1.2-.15.01,0,.02-.02.03-.02.07-.05.14-.09.21-.13.01,0,.02-.01.04-.02.07-.04.14-.08.21-.12.01,0,.02-.01.04-.02.07-.04.15-.08.22-.11.01,0,.02,0,.03-.01.08-.04.16-.07.23-.11,0,0,.01,0,.02,0,.08-.03.16-.07.24-.1,0,0,0,0,0,0,.08-.03.17-.06.25-.08,0,0,.01,0,.02,0-.46.47-.86,1.14-1.16,1.97-.46-.14-.88-.3-1.26-.5,0,0,.01-.01.02-.02ZM318.42,189.69c.08.03.16.06.24.1,0,0,.01,0,.02,0,.08.03.15.07.23.1.01,0,.02.01.03.02.07.04.15.07.22.11.01,0,.03.01.04.02.07.04.14.08.21.12.01,0,.03.02.04.02.07.04.14.09.2.13.01,0,.02.02.03.02.07.05.14.1.2.15,0,0,.02.01.03.02.07.05.14.11.2.16,0,0,0,0,.01,0,.07.06.13.11.2.17,0,0,0,0,.01.01.06.06.13.12.19.18,0,0,0,.01.01.02-.37.19-.78.35-1.23.49-.3-.82-.69-1.48-1.14-1.95.08.03.16.05.24.08,0,0,0,0,0,0ZM316.16,191.94c-.71-.02-1.4-.1-2.05-.25.49-1.31,1.25-2.17,2.05-2.34v2.58ZM316.71,189.36c.8.16,1.56,1.02,2.05,2.34-.65.15-1.33.23-2.05.25v-2.58ZM313.93,192.22c.7.16,1.45.26,2.22.27v2.31h-2.61c.02-.91.15-1.79.39-2.59ZM316.16,195.37v2.17c-.79.02-1.55.11-2.26.28-.21-.75-.33-1.59-.35-2.45h2.61ZM316.16,198.1v2.72c-.83-.17-1.61-1.08-2.1-2.47.66-.15,1.37-.24,2.1-.25ZM316.71,200.82v-2.72c.73.02,1.43.11,2.09.26-.49,1.39-1.26,2.29-2.09,2.46ZM318.97,197.82c-.71-.17-1.47-.27-2.26-.29v-2.17h2.61c-.02.86-.14,1.7-.35,2.46ZM316.71,194.81v-2.31c.77-.02,1.52-.11,2.22-.27.23.79.36,1.67.39,2.59h-2.61ZM310.66,195.37h2.32c.02.91.15,1.79.37,2.59-.56.17-1.07.38-1.51.63-.71-.93-1.12-2.05-1.18-3.22ZM312.21,199.02c.38-.21.83-.39,1.31-.53.31.89.72,1.6,1.2,2.1-.95-.29-1.82-.83-2.51-1.57ZM318.17,200.58c.47-.5.88-1.2,1.18-2.07.47.14.9.32,1.27.52-.68.73-1.52,1.26-2.45,1.55ZM320.99,198.59c-.43-.25-.93-.45-1.48-.62.22-.8.35-1.69.37-2.6h2.29c-.06,1.17-.47,2.3-1.18,3.22Z" style="fill:#8097c7; stroke:#8097c7; stroke-linecap:round; stroke-linejoin:round; stroke-width:.22px;"/><path d="M254.31,113.29c.16-.87.26-1.76.26-2.68,0-7.93-6.43-14.35-14.35-14.35-2.07,0-4.04.45-5.82,1.24-2.59-6.41-8.86-10.93-16.19-10.93-8.7,0-15.89,6.37-17.22,14.69-.86-.15-1.73-.24-2.63-.24-8.46,0-15.31,6.85-15.31,15.31s6.85,15.31,15.31,15.31c.35,0,.69-.03,1.04-.05.32.03.64.05.97.05h53.39c5.05,0,9.19-4.13,9.19-9.19s-3.84-8.87-8.63-9.16Z" style="fill:#fff; stroke-width:0px;"/><path d="M204.64,111.25c-.12.23-.26.48-.42.75-.17.27-.34.54-.53.8s-.37.52-.55.75-.34.42-.48.57l-1.11-.76c.17-.16.35-.34.53-.56s.36-.44.54-.68c.18-.24.34-.48.48-.72s.28-.47.39-.69l1.16.55ZM202.01,108.46c.16.02.32.04.49.06.17.02.34.03.5.03h6.35c.14,0,.31,0,.51-.02s.37-.03.51-.05v1.35c-.16-.01-.33-.02-.51-.03s-.35,0-.49,0h-6.36c-.15,0-.32,0-.5.01-.18,0-.35.02-.5.03v-1.37ZM207.06,106.83s-.02.13-.03.24-.03.22-.04.34-.02.22-.02.31v6.85c0,.3-.09.53-.26.71s-.44.26-.81.26c-.19,0-.37,0-.57-.01s-.38-.02-.57-.03c-.18-.01-.37-.03-.54-.05l-.12-1.28c.22.04.43.07.64.09s.38.03.5.03c.14,0,.23-.03.29-.09s.09-.15.09-.28c0-.06,0-.2,0-.4,0-.21,0-.45,0-.73v-5.07c0-.14-.01-.3-.03-.49-.02-.19-.04-.32-.06-.41h1.52ZM209.06,110.68c.13.17.28.36.44.59s.32.47.49.73c.17.26.32.51.46.75.14.24.27.46.37.64l-1.21.66c-.11-.22-.23-.46-.38-.71s-.29-.51-.44-.76c-.15-.25-.3-.49-.45-.72s-.28-.41-.41-.57l1.12-.61ZM208.48,107.23c0-.22.05-.42.16-.6.11-.18.25-.32.43-.43.18-.11.38-.16.6-.16s.42.06.6.16c.18.11.32.25.43.43.11.18.16.38.16.6s-.05.42-.16.6c-.11.18-.25.33-.43.43-.18.11-.38.16-.6.16s-.42-.05-.6-.16c-.18-.11-.33-.25-.43-.43-.11-.18-.16-.38-.16-.6ZM209.1,107.23c0,.16.05.29.17.4.11.11.24.16.4.16s.28-.05.39-.16.17-.24.17-.4-.06-.28-.17-.39-.24-.16-.39-.16c-.16,0-.29.05-.4.16-.11.11-.17.24-.17.39Z" style="fill:#070731; stroke-width:0px;"/><path d="M213.19,110.18c.12,0,.28.02.47.03.19.01.39.02.6.03s.4.01.58.01h5.53c.24,0,.47,0,.68-.03.21-.02.39-.03.52-.04v1.62c-.12,0-.29-.02-.52-.03-.23-.01-.46-.02-.68-.02h-5.53c-.29,0-.6,0-.91.02s-.56.02-.75.04v-1.62Z" style="fill:#070731; stroke-width:0px;"/><path d="M229.21,106.8c-.12.18-.25.37-.37.58-.12.21-.21.36-.27.47-.23.41-.53.85-.88,1.31-.36.46-.76.91-1.2,1.35-.44.44-.91.83-1.4,1.17l-1.11-.85c.6-.38,1.12-.77,1.54-1.19s.77-.82,1.05-1.2.51-.73.68-1.03c.08-.12.17-.29.26-.5.09-.21.16-.4.21-.57l1.49.46ZM232.61,108.38c-.06.1-.12.21-.19.34-.06.13-.11.26-.15.39-.1.32-.24.67-.42,1.06s-.38.78-.62,1.18c-.24.4-.51.79-.82,1.18-.49.6-1.07,1.18-1.75,1.72-.68.54-1.52,1-2.51,1.38l-1.19-1.04c.72-.22,1.34-.48,1.87-.78.53-.3.99-.62,1.37-.97s.73-.69,1.01-1.03c.23-.27.45-.57.66-.9.21-.33.39-.67.54-1,.15-.33.26-.63.32-.89h-3.48l.47-1.17h2.92c.17,0,.33-.01.49-.03.16-.02.3-.05.41-.08l1.05.65ZM227.77,110.13c.32.18.66.39,1.04.63.37.24.75.5,1.14.76.38.26.75.51,1.09.76s.63.47.86.66l-.98,1.16c-.23-.21-.51-.44-.84-.72s-.69-.55-1.08-.83c-.38-.28-.76-.56-1.14-.82-.37-.26-.71-.48-1-.67l.92-.94Z" style="fill:#070731; stroke-width:0px;"/><path d="M234.89,114.57c.45-.32.82-.7,1.11-1.14.29-.45.5-.88.64-1.32.08-.23.13-.51.17-.84.04-.33.07-.69.09-1.07s.03-.76.04-1.13c0-.37,0-.72,0-1.03,0-.21,0-.38-.03-.53-.02-.15-.04-.29-.07-.42h1.51s-.01.07-.03.17-.02.22-.03.35c0,.13-.01.27-.01.42,0,.3,0,.65-.01,1.06s-.02.81-.04,1.23-.05.81-.09,1.19-.1.69-.17.95c-.16.58-.39,1.12-.71,1.62-.31.5-.69.94-1.13,1.33l-1.25-.83ZM239.65,114.72c.02-.1.04-.22.06-.35.02-.13.03-.27.03-.41v-6c0-.23-.01-.44-.04-.61-.02-.17-.04-.26-.05-.28h1.53s-.02.11-.04.28c-.02.18-.03.38-.03.61v5.38c.28-.12.57-.29.88-.5.3-.21.6-.46.89-.75.29-.28.55-.59.78-.92l.79,1.13c-.28.37-.62.73-1.02,1.09-.4.36-.81.68-1.24.98s-.83.54-1.22.74c-.11.06-.2.12-.27.17-.07.05-.13.1-.17.14l-.87-.71Z" style="fill:#070731; stroke-width:0px;"/><path d="M240.88,147.14c0,.66-.54,1.19-1.19,1.19h-33.37c-.66,0-1.19-.54-1.19-1.19v-24.53c0-.66.54-1.19,1.19-1.19h33.37c.66,0,1.19.54,1.19,1.19v24.53ZM239.35,126.95c0-.66-.54-1.19-1.19-1.19h-30.33c-.66,0-1.19.54-1.19,1.19v18.67c0,.66.54,1.19,1.19,1.19h30.33c.66,0,1.19-.54,1.19-1.19v-18.67Z" style="fill:#8097c7; stroke-width:0px;"/><rect x="206.63" y="125.76" width="32.72" height="21.06" rx="1.19" ry="1.19" style="fill:#fff; stroke-width:0px;"/><path d="M232.66,122.83c.49,0,.88.39.88.88,0,.23-.09.46-.26.62-.16.16-.39.26-.62.26s-.46-.09-.62-.26c-.16-.17-.26-.39-.26-.62,0-.49.39-.88.88-.88h0Z" style="fill:#fff; stroke-width:0px;"/><path d="M235.57,122.83c.49,0,.88.39.88.88,0,.49-.39.88-.88.88-.23,0-.46-.09-.62-.26-.17-.16-.26-.39-.26-.62,0-.49.39-.88.88-.88h0Z" style="fill:#fff; stroke-width:0px;"/><path d="M238.47,122.83c.49,0,.88.39.88.88s-.39.88-.88.88c-.23,0-.46-.09-.62-.26-.16-.16-.26-.39-.26-.62,0-.49.39-.88.88-.88h0Z" style="fill:#fff; stroke-width:0px;"/><rect x="223.78" y="128.87" width="12.46" height="9.28" rx=".41" ry=".41" style="fill:#00c2c7; stroke-width:0px;"/><rect x="209.75" y="128.87" width="11.6" height=".97" rx=".15" ry=".15" style="fill:#8097c7; stroke-width:0px;"/><rect x="209.75" y="131.64" width="11.6" height=".97" rx=".15" ry=".15" style="fill:#8097c7; stroke-width:0px;"/><rect x="209.75" y="134.41" width="11.6" height=".97" rx=".15" ry=".15" style="fill:#8097c7; stroke-width:0px;"/><rect x="209.75" y="137.19" width="11.6" height=".97" rx=".15" ry=".15" style="fill:#8097c7; stroke-width:0px;"/><rect x="209.75" y="139.96" width="26.49" height=".97" rx=".15" ry=".15" style="fill:#8097c7; stroke-width:0px;"/><rect x="209.75" y="142.73" width="26.49" height=".97" rx=".15" ry=".15" style="fill:#8097c7; stroke-width:0px;"/><path d="M302.98,49.17c.1,0,.21.01.36.02s.26.01.36.01h3.94s.11,0,.19,0,.16,0,.24,0c.08,0,.15,0,.21,0v.84c-.08,0-.19-.01-.31-.02-.13,0-.23,0-.3,0h-3.96c-.09,0-.21,0-.35,0-.14,0-.27.01-.37.02v-.86ZM303.41,47.29c.1,0,.2.01.3.02.1,0,.22.01.34.01h3.14c.11,0,.22,0,.32,0,.1,0,.19-.01.27-.02v.82c-.08,0-.17,0-.26-.01s-.2,0-.32,0h-3.14c-.12,0-.24,0-.34,0-.11,0-.21,0-.3.02v-.82ZM305.66,49.59v1.4c0,.18.06.3.18.38s.31.11.57.11c.3,0,.59,0,.87-.03.28-.02.56-.04.82-.07l-.06.88c-.14,0-.31.02-.51.03s-.41.02-.63.02c-.22,0-.44,0-.64,0-.4,0-.7-.04-.92-.13-.22-.09-.37-.21-.45-.37-.08-.16-.12-.35-.12-.57v-3.35h.9v1.69Z" style="fill:#fff; stroke-width:0px;"/><path d="M310.61,50.06c.07-.18.15-.38.21-.58s.13-.41.18-.63c.05-.22.1-.43.14-.64.04-.21.07-.42.09-.63l.95.2c-.02.06-.04.13-.06.22-.02.08-.04.16-.06.24s-.03.14-.04.2c-.02.11-.05.25-.09.41s-.08.33-.14.51c-.05.18-.11.36-.16.54-.05.18-.11.35-.17.5-.08.21-.17.43-.28.65-.11.23-.22.44-.34.65-.12.21-.24.4-.35.56l-.92-.39c.21-.27.4-.57.58-.9.18-.33.33-.63.43-.92ZM313.84,49.93c-.07-.17-.14-.36-.22-.56-.08-.2-.16-.39-.25-.59-.09-.2-.17-.38-.25-.56-.08-.17-.16-.32-.23-.45l.87-.28c.07.13.14.28.23.46.09.18.17.37.26.57.09.2.17.4.25.59.08.2.16.37.22.53.06.14.12.31.19.51.07.2.14.4.21.61.07.21.14.42.2.62.06.2.12.38.16.54l-.97.31c-.06-.26-.12-.52-.2-.78-.07-.27-.15-.53-.23-.78-.08-.26-.17-.5-.25-.74ZM314.45,46.88c.06.08.12.17.18.28.06.11.12.22.19.33.06.11.11.2.15.29l-.52.23c-.07-.13-.15-.29-.24-.46-.09-.17-.18-.32-.27-.45l.52-.22ZM315.23,46.59c.06.08.12.18.19.29.07.11.13.22.19.33.06.11.11.2.15.27l-.52.22c-.07-.13-.15-.29-.25-.46-.1-.17-.19-.32-.28-.44l.52-.22Z" style="fill:#fff; stroke-width:0px;"/><path d="M316.82,49.55c.59-.15,1.12-.33,1.6-.53.48-.2.9-.42,1.26-.64.23-.14.45-.3.68-.48.23-.18.44-.37.65-.56.2-.19.37-.37.51-.55l.71.67c-.2.2-.42.39-.66.59-.24.2-.48.39-.74.58-.26.18-.51.35-.76.5-.25.14-.53.29-.83.44-.31.15-.63.3-.97.43s-.68.25-1.03.36l-.41-.82ZM319.54,48.8l.93-.22v2.94c0,.1,0,.2,0,.31,0,.11.01.22.02.32s.02.17.03.23h-1.03c0-.05.02-.13.02-.23s.01-.2.02-.32c0-.11,0-.22,0-.31v-2.73Z" style="fill:#fff; stroke-width:0px;"/><path d="M323.74,51.86c.29-.2.52-.44.71-.73.18-.28.32-.56.41-.84.05-.14.08-.32.11-.53.02-.21.04-.44.06-.68.01-.24.02-.48.02-.72,0-.24,0-.46,0-.66,0-.13,0-.24-.02-.34s-.03-.18-.04-.26h.96s-.01.04-.02.11c0,.06-.01.14-.02.22,0,.08,0,.17,0,.26,0,.19,0,.42,0,.67,0,.26-.01.52-.03.78-.01.27-.03.52-.06.76-.03.24-.06.44-.1.6-.1.37-.25.71-.45,1.03-.2.32-.44.6-.72.85l-.8-.53ZM326.76,51.95c.01-.06.03-.14.04-.23s.02-.17.02-.26v-3.81c0-.15,0-.28-.02-.39s-.03-.17-.03-.18h.97s-.01.07-.03.18c-.01.11-.02.24-.02.39v3.42c.18-.08.36-.19.56-.32.19-.14.38-.29.57-.47.19-.18.35-.38.49-.58l.5.72c-.18.24-.4.47-.65.69s-.52.43-.79.62c-.27.19-.53.34-.78.47-.07.04-.13.08-.17.11-.04.03-.08.06-.11.09l-.55-.45Z" style="fill:#fff; stroke-width:0px;"/><rect x="307.84" y="10.57" width="17.15" height="31.84" rx="2.35" ry="2.35" style="fill:#8097c7; stroke-width:0px;"/><rect x="308.65" y="13.73" width="15.52" height="25.52" style="fill:#fff; stroke-width:0px;"/><path d="M317.87,12.15c0,.22-.21.4-.47.4h-1.99c-.26,0-.47-.18-.47-.4s.21-.4.47-.4h1.99c.26,0,.47.18.47.4Z" style="fill:#fff; stroke-width:0px;"/><g style="clip-path:url(#b);"><circle cx="316.41" cy="36.89" r="14.76" style="fill:#99acd2; stroke-width:0px;"/><circle cx="316.41" cy="36.89" r="14.76" style="fill:none; stroke:#fff; stroke-linecap:round; stroke-linejoin:round; stroke-width:.8px;"/><line x1="316.41" y1="22.13" x2="316.41" y2="51.66" style="fill:none; stroke:#fff; stroke-linecap:round; stroke-linejoin:round; stroke-width:.8px;"/><line x1="301.65" y1="36.89" x2="331.17" y2="36.89" style="fill:none; stroke:#fff; stroke-linecap:round; stroke-linejoin:round; stroke-width:.8px;"/><ellipse cx="316.41" cy="36.89" rx="11.25" ry="14.76" style="fill:none; stroke:#fff; stroke-linecap:round; stroke-linejoin:round; stroke-width:.8px;"/><ellipse cx="316.41" cy="36.89" rx="5.85" ry="14.76" style="fill:none; stroke:#fff; stroke-linecap:round; stroke-linejoin:round; stroke-width:.8px;"/><ellipse cx="316.41" cy="36.89" rx="14.76" ry="11.25" style="fill:none; stroke:#fff; stroke-linecap:round; stroke-linejoin:round; stroke-width:.8px;"/><ellipse cx="316.41" cy="36.89" rx="14.76" ry="5.85" style="fill:none; stroke:#fff; stroke-linecap:round; stroke-linejoin:round; stroke-width:.8px;"/></g><path d="M313.53,28.68c-.37-.65-.95-1.82-.95-2.22,0-.52.43-.95.95-.95s.95.43.95.95c0,.4-.58,1.57-.95,2.22Z" style="fill:#fff; stroke-width:0px;"/><path d="M313.53,25.3c-.64,0-1.16.52-1.16,1.16,0,.53.8,2.02,1.07,2.48.02.03.06.05.09.05s.07-.02.09-.05c.27-.46,1.07-1.95,1.07-2.48,0-.64-.52-1.16-1.16-1.16ZM313.53,28.68c-.37-.65-.95-1.82-.95-2.22,0-.52.43-.95.95-.95s.95.43.95.95c0,.4-.58,1.57-.95,2.22Z" style="fill:#7a46e8; stroke-width:0px;"/><path d="M313.53,25.83c-.35,0-.63.28-.63.63s.28.63.63.63.63-.28.63-.63-.28-.63-.63-.63ZM313.53,26.88c-.23,0-.42-.19-.42-.42s.19-.42.42-.42.42.19.42.42-.19.42-.42.42Z" style="fill:#7a46e8; stroke-width:0px;"/><path d="M311.09,27.52c-.37-.65-.95-1.82-.95-2.22,0-.52.43-.95.95-.95s.95.43.95.95c0,.4-.58,1.57-.95,2.22Z" style="fill:#fff; stroke-width:0px;"/><path d="M311.09,24.14c-.64,0-1.16.52-1.16,1.16,0,.53.8,2.02,1.07,2.48.02.03.06.05.09.05s.07-.02.09-.05c.27-.46,1.07-1.95,1.07-2.48,0-.64-.52-1.16-1.16-1.16ZM311.09,27.52c-.37-.65-.95-1.82-.95-2.22,0-.52.43-.95.95-.95s.95.43.95.95c0,.4-.58,1.57-.95,2.22Z" style="fill:#7a46e8; stroke-width:0px;"/><path d="M311.09,24.67c-.35,0-.63.28-.63.63s.28.63.63.63.63-.28.63-.63-.28-.63-.63-.63ZM311.09,25.72c-.23,0-.42-.19-.42-.42s.19-.42.42-.42.42.19.42.42-.19.42-.42.42Z" style="fill:#7a46e8; stroke-width:0px;"/><path d="M321.73,22.05c-.64,0-1.16.52-1.16,1.16,0,.53.8,2.02,1.07,2.48.02.03.06.05.09.05s.07-.02.09-.05c.27-.46,1.07-1.95,1.07-2.48,0-.64-.52-1.16-1.16-1.16ZM321.73,23.63c-.23,0-.42-.19-.42-.42s.19-.42.42-.42.42.19.42.42-.19.42-.42.42Z" style="fill:#8097c7; stroke-width:0px;"/><path d="M313.53,25.3c-.64,0-1.16.52-1.16,1.16,0,.53.8,2.02,1.07,2.48.02.03.06.05.09.05s.07-.02.09-.05c.27-.46,1.07-1.95,1.07-2.48,0-.64-.52-1.16-1.16-1.16ZM313.53,26.88c-.23,0-.42-.19-.42-.42s.19-.42.42-.42.42.19.42.42-.19.42-.42.42Z" style="fill:#8097c7; stroke-width:0px;"/><path d="M311.09,24.14c-.64,0-1.16.52-1.16,1.16,0,.53.8,2.02,1.07,2.48.02.03.06.05.09.05s.07-.02.09-.05c.27-.46,1.07-1.95,1.07-2.48,0-.64-.52-1.16-1.16-1.16ZM311.09,25.72c-.23,0-.42-.19-.42-.42s.19-.42.42-.42.42.19.42.42-.19.42-.42.42Z" style="fill:#8097c7; stroke-width:0px;"/><rect x="308.62" y="13.73" width="15.52" height="25.52" style="fill:none; stroke:#8097c7; stroke-miterlimit:10; stroke-width:1.21px;"/><g style="opacity:.3;"><path d="M161.42,129.11v98.89H2v-98.89h159.42M163.42,127.11H0v102.89h163.42v-102.89h0Z" style="fill:#fff; stroke-width:0px;"/></g><path d="M50.3,204.9c-.1.15-.2.31-.3.47-.1.17-.17.3-.22.39-.19.34-.43.69-.71,1.06-.28.36-.6.72-.95,1.06s-.73.65-1.14.94l-.96-.7c.37-.23.7-.47.99-.71.29-.24.53-.48.74-.72.21-.24.39-.47.54-.69.15-.22.28-.42.39-.6.07-.11.14-.25.21-.42.07-.17.13-.33.17-.47l1.24.41ZM53.06,206.24c-.05.08-.09.17-.14.28-.05.11-.1.22-.14.33-.07.25-.18.53-.31.85-.13.32-.3.65-.49.99-.19.34-.42.67-.67.99-.41.49-.88.93-1.42,1.32s-1.21.75-2,1.07l-1-.9c.58-.17,1.07-.36,1.49-.58.42-.22.78-.46,1.09-.71.31-.25.59-.52.83-.8.2-.22.38-.47.54-.75.16-.28.31-.56.42-.83.12-.28.2-.52.24-.73h-2.86l.39-.96h2.42c.13,0,.26,0,.39-.03.13-.02.25-.04.34-.08l.86.53Z" style="fill:#fff; stroke-width:0px;"/><path d="M62.25,207.47c-.03.06-.06.12-.09.19s-.05.12-.07.17c-.13.41-.29.81-.49,1.22-.19.4-.45.78-.77,1.13-.42.47-.9.86-1.42,1.16-.53.3-1.06.52-1.6.67l-.84-.96c.64-.14,1.21-.33,1.7-.59s.91-.56,1.23-.89c.23-.23.41-.48.55-.73.14-.26.25-.5.33-.73h-4.09c-.1,0-.25,0-.43,0-.19,0-.37.02-.55.03v-1.1c.18.01.36.02.53.03.17.01.32.02.45.02h4.19c.14,0,.26,0,.37-.03s.19-.04.25-.06l.75.47ZM56.48,205.01c.12.02.26.03.42.03.16,0,.32,0,.46,0h3.26c.13,0,.29,0,.47,0,.18,0,.33-.02.45-.03v1.09c-.11-.01-.26-.02-.44-.02-.18,0-.34,0-.5,0h-3.25c-.13,0-.28,0-.44,0-.16,0-.31.01-.44.02v-1.09Z" style="fill:#fff; stroke-width:0px;"/><path d="M71.45,206.38c-.03.09-.07.21-.1.34-.03.14-.06.25-.07.33-.03.2-.08.4-.12.6-.05.2-.1.41-.17.61-.07.2-.14.4-.22.6s-.17.39-.28.58c-.23.41-.51.79-.86,1.13s-.74.63-1.18.86c-.44.23-.91.42-1.42.56l-.88-1.02c.19-.03.4-.08.61-.14.21-.06.41-.12.58-.19.24-.09.47-.2.71-.34.23-.14.46-.3.67-.49s.39-.39.55-.62c.14-.21.26-.43.37-.67.1-.24.18-.49.25-.75.06-.26.11-.51.14-.76h-4.2v1.24c0,.1,0,.2,0,.32,0,.12.01.22.02.31h-1.17c.01-.11.02-.22.03-.35s.01-.25.01-.36v-1.47c0-.1,0-.22,0-.36s-.02-.27-.03-.37c.15.02.29.03.42.03.14,0,.28,0,.44,0h4.46c.18,0,.32-.01.43-.03.11-.02.2-.04.28-.06l.74.45ZM68.59,204.59c-.02.18-.03.33-.04.44-.01.11-.02.22-.02.34v1.22h-1.18v-1.22c0-.12,0-.23-.01-.34,0-.11-.03-.26-.05-.44h1.3Z" style="fill:#fff; stroke-width:0px;"/><path d="M75.3,210.83v-4.87c0-.15,0-.32-.02-.52-.01-.19-.04-.36-.06-.51h1.32c-.02.15-.03.31-.05.49-.02.18-.03.36-.03.53v4.87c0,.07,0,.18.01.33,0,.14.02.29.03.45.01.15.03.29.04.41h-1.33c.03-.16.05-.36.06-.59.01-.23.02-.42.02-.59ZM76.21,207.12c.28.07.6.17.94.28s.7.24,1.06.37c.36.13.69.26,1.01.39.32.13.58.24.78.34l-.47,1.18c-.24-.13-.51-.26-.8-.38-.29-.12-.58-.25-.88-.37-.3-.12-.59-.23-.87-.33-.28-.1-.54-.19-.77-.26v-1.22ZM78.68,205.21c.08.11.17.25.26.4.1.15.19.31.28.46.09.15.17.29.23.42l-.74.33c-.08-.18-.16-.34-.23-.48s-.15-.28-.23-.41-.17-.27-.28-.42l.71-.3ZM79.79,204.74c.08.11.18.24.28.39.1.15.2.3.29.44.09.15.17.29.23.42l-.71.35c-.09-.18-.18-.34-.26-.48-.08-.14-.16-.27-.25-.4s-.18-.26-.28-.39l.7-.33Z" style="fill:#fff; stroke-width:0px;"/><path d="M82.53,206.37c.06,0,.13.02.22.03.09.01.2.03.31.03.12,0,.25.01.39.01h5.56c.23,0,.41,0,.55-.02.14-.01.27-.03.38-.04v1.13c-.09-.01-.21-.02-.36-.02-.15,0-.34,0-.57,0h-5.56c-.14,0-.27,0-.38,0-.12,0-.22,0-.31.01-.09,0-.17.01-.23.02v-1.15ZM85.33,204.84c-.01.08-.02.19-.03.32-.01.13-.02.28-.02.44v3.03c0,.12,0,.24,0,.36,0,.12,0,.22.01.3,0,.09,0,.16.01.22h-1.19c.01-.06.02-.14.03-.22,0-.09.01-.19.02-.3s0-.24,0-.36v-3.03c0-.12,0-.25-.01-.38,0-.13-.02-.26-.04-.38h1.2ZM88.39,207.77c0,.53-.04,1-.11,1.43-.08.43-.21.81-.39,1.16-.19.35-.45.66-.78.94-.33.28-.75.53-1.26.75l-.91-.86c.41-.14.76-.3,1.05-.47.3-.18.54-.39.73-.65.19-.26.33-.57.43-.93.09-.36.14-.81.14-1.33v-2.25c0-.17,0-.33-.02-.46-.01-.13-.02-.24-.03-.33h1.21c-.01.08-.02.19-.04.33-.01.13-.02.29-.02.46v2.21Z" style="fill:#fff; stroke-width:0px;"/><path d="M91.98,207.59c.1,0,.23.01.39.02.16,0,.32.02.5.02.17,0,.33,0,.48,0h4.55c.2,0,.38,0,.56-.02.17-.01.32-.02.43-.03v1.33c-.1,0-.24-.01-.43-.03-.19-.01-.38-.02-.56-.02h-4.55c-.24,0-.49,0-.75.01-.25,0-.46.02-.62.03v-1.33Z" style="fill:#fff; stroke-width:0px;"/><path d="M102.95,205.01c-.02.13-.04.28-.05.45-.01.17-.02.31-.02.43v4.28c0,.18.05.31.14.37.09.07.23.12.42.16.13.02.28.03.45.04.17,0,.35.01.53.01.22,0,.46,0,.73-.02.27-.01.54-.03.81-.06.27-.02.53-.05.77-.09.24-.04.45-.08.63-.13v1.24c-.27.04-.57.07-.92.1-.35.03-.71.05-1.07.06s-.71.02-1.02.02c-.28,0-.54,0-.78-.03s-.46-.04-.64-.07c-.37-.07-.65-.21-.86-.42-.2-.21-.3-.49-.3-.85v-4.62c0-.06,0-.15,0-.25,0-.11-.01-.22-.02-.33,0-.11-.02-.21-.04-.3h1.25ZM102.39,207.61c.27-.06.56-.13.86-.21.31-.08.61-.17.92-.27.31-.1.61-.19.89-.29.28-.1.53-.2.75-.29.15-.06.3-.12.45-.19.15-.07.31-.16.47-.26l.46,1.08c-.16.06-.33.13-.51.21s-.34.14-.48.19c-.25.1-.53.2-.85.31s-.65.21-1,.32-.68.2-1.02.29c-.34.09-.65.17-.94.24v-1.11ZM106.61,204.65c.07.1.15.22.24.36.08.14.17.28.24.42s.14.27.2.37l-.69.29c-.08-.18-.19-.37-.31-.6-.12-.22-.24-.42-.35-.58l.67-.27ZM107.61,204.27c.08.11.16.23.25.37s.17.28.25.42c.08.14.15.26.19.36l-.67.29c-.09-.18-.2-.38-.32-.6-.12-.22-.25-.41-.36-.57l.67-.27Z" style="fill:#fff; stroke-width:0px;"/><path d="M116.57,205.77c-.03.05-.08.13-.15.24-.07.11-.11.21-.15.3-.12.27-.26.56-.44.89-.17.33-.37.66-.58.99-.22.33-.45.64-.69.93-.32.36-.67.71-1.05,1.06-.38.35-.78.67-1.2.96s-.85.54-1.29.75l-.87-.92c.46-.18.9-.4,1.33-.66.43-.27.83-.55,1.19-.86s.68-.61.95-.91c.19-.21.36-.44.53-.69.17-.24.32-.48.45-.72.13-.24.23-.46.29-.67h-2.87c-.12,0-.24,0-.37.01-.13,0-.25.02-.37.03-.12,0-.21.02-.27.02v-1.2c.08,0,.19.01.31.03.12.01.25.02.38.03.13,0,.23,0,.32,0h2.99c.19,0,.36-.01.51-.03.16-.02.28-.05.36-.08l.7.52ZM114.67,208.4c.22.18.46.38.7.61.25.23.49.47.74.72s.47.49.67.72c.21.23.38.43.52.6l-.97.84c-.21-.29-.45-.59-.72-.9s-.55-.62-.85-.93c-.3-.31-.6-.6-.9-.88l.8-.78Z" style="fill:#fff; stroke-width:0px;"/><path d="M97.68,182.27c.09-.45.14-.91.14-1.39,0-4.07-3.3-7.37-7.37-7.37-1.06,0-2.07.23-2.99.64-1.33-3.29-4.54-5.61-8.31-5.61-4.46,0-8.15,3.27-8.84,7.54-.44-.08-.89-.12-1.35-.12-4.34,0-7.86,3.52-7.86,7.86s3.52,7.86,7.86,7.86c.23,0,.46-.02.69-.03.12,0,.23.03.34.03h27.4c2.59,0,4.71-2.12,4.71-4.71s-1.97-4.54-4.43-4.69Z" style="fill:#fff; stroke-width:0px;"/><path d="M97.68,182.27c.09-.45.14-.91.14-1.39,0-4.07-3.3-7.37-7.37-7.37-1.06,0-2.07.23-2.99.64-1.33-3.29-4.54-5.61-8.31-5.61-4.46,0-8.15,3.27-8.84,7.54-.44-.08-.89-.12-1.35-.12-4.34,0-7.86,3.52-7.86,7.86s3.52,7.86,7.86,7.86c.23,0,.46-.02.69-.03.12,0,.23.03.34.03h27.4c2.59,0,4.71-2.12,4.71-4.71s-1.97-4.54-4.43-4.69Z" style="fill:none; stroke:#8097c7; stroke-linecap:round; stroke-linejoin:round; stroke-width:1.82px;"/><path d="M81.72,181.02c-.06-.08-.16-.08-.22,0l-5.73,7.59c-.06.08-.03.14.07.14h2.96c.1,0,.18.08.18.18v8.6c0,.1.08.18.18.18h4.89c.1,0,.18-.08.18-.18v-8.6c0-.1.08-.18.18-.18h2.96c.1,0,.13-.06.07-.14l-5.73-7.59Z" style="fill:#00c2c7; stroke-width:0px;"/><path d="M81.72,181.02c-.06-.08-.16-.08-.22,0l-5.73,7.59c-.06.08-.03.14.07.14h2.96c.1,0,.18.08.18.18v8.6c0,.1.08.18.18.18h4.89c.1,0,.18-.08.18-.18v-8.6c0-.1.08-.18.18-.18h2.96c.1,0,.13-.06.07-.14l-5.73-7.59Z" style="fill:none; stroke:#00c2c7; stroke-linecap:round; stroke-linejoin:round; stroke-width:.61px;"/><path d="M29.64,158.61h-1.35l5.22-11.93h1.19l5.19,11.93h-1.36l-1.33-3.13h-6.24l-1.31,3.13ZM31.41,154.36h5.32l-2.66-6.33-2.66,6.33Z" style="fill:#fff; stroke-width:0px;"/><path d="M41.45,152.46c0-.21,0-.49-.02-.83-.01-.34-.03-.64-.05-.91h1.11c.02.21.04.45.05.71.01.26.02.47.02.64h.03c.23-.46.57-.83,1.02-1.12.45-.29.97-.43,1.54-.43.15,0,.28,0,.4.02.12.01.24.03.37.07l-.15,1.08c-.07-.02-.18-.04-.34-.07-.16-.02-.32-.03-.48-.03-.31,0-.6.06-.89.17s-.53.29-.74.53c-.21.24-.38.55-.51.93-.13.38-.2.83-.2,1.36v4.04h-1.16v-6.15Z" style="fill:#fff; stroke-width:0px;"/><path d="M52.9,152.52c-.19-.3-.48-.55-.84-.75-.37-.2-.77-.29-1.2-.29-.47,0-.89.08-1.26.24-.38.16-.7.39-.96.67-.27.29-.47.62-.61,1.01-.14.39-.21.81-.21,1.26s.07.87.21,1.25c.14.38.34.72.61,1,.26.29.58.51.96.67.38.16.8.24,1.26.24.51,0,.94-.1,1.3-.29.35-.19.64-.44.87-.74l.87.64c-.34.42-.76.75-1.25.99-.49.25-1.09.37-1.78.37-.65,0-1.23-.1-1.76-.31-.52-.21-.97-.5-1.34-.87-.37-.37-.66-.81-.86-1.31-.2-.51-.31-1.06-.31-1.65s.1-1.15.31-1.65c.2-.51.49-.94.86-1.31.37-.37.82-.66,1.34-.87.52-.21,1.11-.31,1.76-.31.53,0,1.08.12,1.63.35.55.23,1,.57,1.34,1.02l-.9.64Z" style="fill:#fff; stroke-width:0px;"/><path d="M64.99,148.82c-.42-.44-.92-.78-1.5-1.02-.58-.24-1.25-.36-2-.36s-1.47.14-2.09.42c-.62.28-1.15.66-1.58,1.14-.43.48-.77,1.03-1,1.66-.23.63-.35,1.29-.35,1.99s.12,1.36.35,1.99c.23.63.57,1.18,1,1.65.43.47.96.85,1.58,1.13.62.28,1.32.42,2.09.42.68,0,1.31-.07,1.88-.22s1.03-.33,1.38-.56v-3.62h-2.81v-1.06h4.04v5.37c-.66.39-1.37.69-2.13.88-.76.19-1.55.29-2.37.29-.91,0-1.75-.16-2.52-.47-.77-.31-1.44-.75-2-1.31-.56-.56-.99-1.22-1.3-1.98-.31-.76-.47-1.6-.47-2.51s.16-1.75.48-2.51c.32-.76.76-1.42,1.32-1.98.56-.56,1.23-.99,2-1.31s1.6-.47,2.5-.47c.97,0,1.81.14,2.52.42.72.28,1.33.67,1.84,1.18l-.85.84Z" style="fill:#fff; stroke-width:0px;"/><path d="M70.03,158.61h-1.23v-11.93h1.23v11.93Z" style="fill:#fff; stroke-width:0px;"/><path d="M78.77,148.6c-.26-.36-.6-.65-1.01-.87s-.9-.33-1.48-.33c-.3,0-.6.04-.9.13-.31.09-.59.23-.84.41-.25.18-.45.42-.61.7-.15.28-.23.61-.23.99s.07.69.22.94c.15.25.34.46.59.63s.52.32.84.43c.31.11.64.22.98.34.42.14.84.28,1.27.44.43.16.81.36,1.15.62.34.25.62.57.84.96.22.39.32.88.32,1.48s-.12,1.11-.35,1.55-.53.79-.9,1.07c-.37.28-.79.49-1.26.62-.47.13-.95.2-1.42.2-.36,0-.73-.04-1.09-.11-.36-.07-.71-.18-1.04-.32-.33-.14-.64-.33-.92-.55s-.53-.48-.75-.77l1.06-.78c.26.43.63.78,1.1,1.07.47.29,1.03.43,1.67.43.31,0,.62-.05.94-.14.32-.1.61-.24.86-.44.26-.2.47-.44.63-.73.17-.29.25-.62.25-1.01,0-.42-.08-.76-.25-1.04-.17-.28-.39-.51-.66-.69s-.59-.34-.94-.46c-.35-.12-.72-.25-1.11-.37-.4-.12-.79-.26-1.18-.42-.39-.16-.74-.36-1.04-.61s-.56-.56-.74-.94-.28-.83-.28-1.36c0-.57.12-1.07.35-1.48.23-.42.54-.76.91-1.03.38-.27.79-.47,1.25-.59.45-.12.9-.19,1.35-.19.82,0,1.52.14,2.1.43s1.02.63,1.31,1.02l-.97.78Z" style="fill:#fff; stroke-width:0px;"/><path d="M98.74,152.64c0,.91-.16,1.75-.48,2.51-.32.76-.76,1.42-1.32,1.98-.56.56-1.23.99-2,1.31-.77.31-1.6.47-2.5.47s-1.73-.16-2.5-.47c-.77-.31-1.43-.75-2-1.31s-1-1.22-1.32-1.98c-.32-.76-.48-1.6-.48-2.51s.16-1.75.48-2.51c.32-.76.76-1.42,1.32-1.98.56-.56,1.23-.99,2-1.31s1.6-.47,2.5-.47,1.73.16,2.5.47c.77.31,1.43.75,2,1.31.56.56,1,1.22,1.32,1.98.32.76.48,1.6.48,2.51ZM97.45,152.64c0-.7-.11-1.36-.34-1.99-.23-.63-.56-1.18-.99-1.66-.43-.48-.96-.86-1.58-1.14-.62-.28-1.32-.42-2.09-.42s-1.47.14-2.09.42c-.62.28-1.15.66-1.58,1.14-.43.48-.76,1.03-.99,1.66-.23.63-.34,1.29-.34,1.99s.11,1.36.34,1.99c.23.63.56,1.18.99,1.65.43.47.96.85,1.58,1.13.62.28,1.32.42,2.09.42s1.47-.14,2.09-.42c.62-.28,1.15-.66,1.58-1.13.43-.47.76-1.02.99-1.65.23-.63.34-1.29.34-1.99Z" style="fill:#fff; stroke-width:0px;"/><path d="M102.04,150.72c.02.21.04.45.05.71.01.26.02.47.02.64h.03c.23-.46.6-.83,1.11-1.12.51-.29,1.05-.43,1.62-.43,1.01,0,1.77.3,2.28.89.51.6.76,1.38.76,2.36v4.84h-1.16v-4.36c0-.42-.03-.79-.1-1.13-.07-.34-.18-.63-.35-.87-.17-.24-.39-.43-.67-.56-.28-.13-.63-.2-1.05-.2-.31,0-.61.06-.9.19-.29.12-.55.31-.78.56-.23.25-.41.57-.55.96-.14.39-.2.85-.2,1.37v4.04h-1.16v-6.15c0-.21,0-.49-.02-.83-.01-.34-.03-.64-.05-.91h1.11Z" style="fill:#fff; stroke-width:0px;"/><path d="M111.71,158.61h-1.16v-12.74h1.16v12.74Z" style="fill:#fff; stroke-width:0px;"/><path d="M115.81,147.69c0,.24-.09.43-.26.58-.17.15-.36.23-.56.23s-.39-.08-.56-.23c-.17-.15-.26-.35-.26-.58s.09-.43.26-.58c.17-.15.36-.23.56-.23s.39.08.56.23c.17.15.26.35.26.58ZM115.58,158.61h-1.16v-7.89h1.16v7.89Z" style="fill:#fff; stroke-width:0px;"/><path d="M119.31,150.72c.02.21.04.45.05.71.01.26.02.47.02.64h.03c.23-.46.6-.83,1.11-1.12.51-.29,1.05-.43,1.62-.43,1.01,0,1.77.3,2.28.89.51.6.76,1.38.76,2.36v4.84h-1.16v-4.36c0-.42-.03-.79-.1-1.13-.07-.34-.18-.63-.35-.87-.17-.24-.39-.43-.67-.56-.28-.13-.63-.2-1.05-.2-.31,0-.61.06-.9.19-.29.12-.55.31-.78.56-.23.25-.41.57-.55.96-.14.39-.2.85-.2,1.37v4.04h-1.16v-6.15c0-.21,0-.49-.02-.83-.01-.34-.03-.64-.05-.91h1.11Z" style="fill:#fff; stroke-width:0px;"/><path d="M135.13,154.43v.25c0,.09,0,.19-.02.29h-6.6c.01.39.09.76.24,1.11.15.35.35.65.61.91.26.26.57.46.92.62s.73.23,1.14.23c.6,0,1.12-.14,1.56-.41.44-.27.77-.59,1-.95l.87.67c-.48.6-1,1.02-1.58,1.28-.57.26-1.19.39-1.85.39-.59,0-1.14-.1-1.65-.31-.51-.21-.94-.5-1.31-.87-.36-.37-.65-.81-.86-1.31-.21-.51-.32-1.06-.32-1.65s.1-1.15.31-1.65c.2-.51.49-.94.85-1.31s.79-.66,1.28-.87c.49-.21,1.02-.31,1.59-.31.63,0,1.18.1,1.65.31.48.21.88.49,1.19.84.32.35.56.77.73,1.24.16.47.25.98.25,1.52ZM133.96,154.06c-.03-.74-.28-1.36-.72-1.84-.45-.49-1.09-.73-1.91-.73-.39,0-.74.07-1.07.21s-.62.33-.87.57c-.25.24-.45.52-.6.83-.15.31-.23.63-.26.97h5.43Z" style="fill:#fff; stroke-width:0px;"/><g style="opacity:.3;"><path d="M448.92,65.55v98.89h-159.42v-98.89h159.42M450.92,63.55h-163.42v102.89h163.42V63.55h0Z" style="fill:#fff; stroke-width:0px;"/></g><path d="M342.71,144.87c.12.02.26.03.4.04.14,0,.28.01.41.01h5.55c.09,0,.21,0,.37-.01.16,0,.29-.02.4-.04v1.1c-.1-.01-.23-.02-.37-.02s-.28,0-.4,0h-5.55c-.12,0-.26,0-.41,0-.15,0-.28.01-.4.03v-1.11ZM343.69,142.7c.14.02.29.04.45.05s.32.02.46.02h2.77c.15,0,.3,0,.46-.02s.31-.03.46-.05v1.09c-.15-.01-.3-.02-.46-.02s-.31,0-.46,0h-2.77c-.15,0-.3,0-.47,0-.16,0-.31,0-.44.02v-1.09ZM347.04,145.46c0,.55-.05,1.04-.14,1.48-.1.44-.23.83-.42,1.18-.1.19-.23.39-.4.59-.17.2-.37.4-.59.58-.22.18-.46.33-.71.46l-.99-.72c.3-.11.59-.28.86-.5.28-.22.5-.46.67-.71.21-.32.36-.68.43-1.08.07-.4.11-.82.11-1.28h1.18ZM348.79,142.11c.07.1.15.22.23.36.08.14.16.28.24.42.08.14.14.27.2.37l-.68.3c-.09-.17-.2-.37-.32-.6-.12-.22-.24-.42-.35-.58l.68-.28ZM349.79,141.73c.07.11.15.23.24.38.08.14.17.29.25.42.08.14.15.26.2.35l-.68.3c-.08-.18-.19-.38-.32-.6-.13-.22-.25-.41-.36-.57l.67-.28Z" style="fill:#fff; stroke-width:0px;"/><path d="M358.31,143.35c-.03.05-.08.13-.15.24-.07.11-.11.21-.15.3-.12.27-.26.56-.44.89-.17.33-.37.66-.58.99-.22.33-.45.64-.69.93-.32.36-.67.71-1.05,1.06-.38.35-.78.67-1.2.96s-.85.54-1.29.75l-.87-.92c.46-.18.9-.4,1.33-.66.43-.27.83-.55,1.19-.86s.68-.61.95-.91c.19-.21.36-.44.53-.69.17-.24.32-.48.45-.72.13-.24.23-.46.29-.67h-2.87c-.12,0-.24,0-.37.01-.13,0-.25.02-.37.03-.12,0-.21.02-.27.02v-1.2c.08,0,.19.01.31.03.12.01.25.02.38.03.13,0,.23,0,.32,0h2.99c.19,0,.36-.01.51-.03.16-.02.28-.05.36-.08l.7.52ZM356.42,145.99c.22.18.46.38.7.61.25.23.49.47.74.72s.47.49.67.72c.21.23.38.43.52.6l-.97.84c-.21-.29-.45-.59-.72-.9s-.55-.62-.85-.93c-.3-.31-.6-.6-.9-.88l.8-.78Z" style="fill:#fff; stroke-width:0px;"/><path d="M365.25,142.49c-.1.15-.2.31-.3.47-.1.17-.17.3-.22.39-.19.34-.43.69-.71,1.06-.28.36-.6.72-.95,1.06s-.73.65-1.14.94l-.96-.7c.37-.23.7-.47.99-.71.29-.24.53-.48.74-.72.21-.24.39-.47.54-.69.15-.22.28-.42.39-.6.07-.11.14-.25.21-.42.07-.17.13-.33.17-.47l1.24.41ZM368.02,143.83c-.05.08-.09.17-.14.28-.05.11-.1.22-.14.33-.07.25-.18.53-.31.85-.13.32-.3.65-.49.99-.19.34-.42.67-.67.99-.41.49-.88.93-1.42,1.32s-1.21.75-2,1.07l-1-.9c.58-.17,1.07-.36,1.49-.58.42-.22.78-.46,1.09-.71.31-.25.59-.52.83-.8.2-.22.38-.47.54-.75.16-.28.31-.56.42-.83.12-.28.2-.52.24-.73h-2.86l.39-.96h2.42c.13,0,.26,0,.39-.03.13-.02.25-.04.34-.08l.86.53Z" style="fill:#fff; stroke-width:0px;"/><path d="M372.21,148.28v-4.87c0-.15,0-.32-.02-.51-.01-.19-.04-.36-.06-.51h1.32c-.02.15-.03.31-.05.49-.02.18-.03.35-.03.53v4.87c0,.08,0,.19,0,.33,0,.14.02.29.03.45.02.15.03.29.03.41h-1.32c.02-.17.04-.37.06-.59.02-.23.03-.42.03-.59ZM373.12,144.59c.28.07.6.17.95.28.35.12.7.24,1.06.37.36.13.69.26,1,.39.31.13.57.24.78.35l-.48,1.17c-.24-.12-.5-.25-.79-.38-.29-.13-.58-.25-.88-.37-.3-.12-.59-.23-.87-.33-.29-.1-.54-.19-.78-.27v-1.21Z" style="fill:#fff; stroke-width:0px;"/><path d="M381.01,144.51c.06.11.12.25.19.42s.14.35.22.53.15.37.22.54c.07.17.12.32.17.44l-1.03.39c-.03-.11-.08-.26-.15-.44-.06-.18-.14-.37-.22-.57-.08-.2-.15-.39-.22-.56s-.13-.3-.18-.39l1.02-.36ZM386.11,144.68c-.05.14-.08.25-.11.35-.03.1-.06.19-.09.27-.11.43-.25.86-.44,1.28-.19.43-.42.83-.71,1.2-.4.51-.84.94-1.34,1.29s-1,.62-1.5.81l-.89-.91c.31-.08.64-.21.98-.38s.68-.37,1-.61.6-.5.83-.79c.19-.24.36-.52.51-.83s.27-.65.37-1.01c.1-.36.17-.71.2-1.06l1.19.38ZM382.98,144.06c.04.09.09.22.16.39.07.17.13.34.21.53.07.19.14.37.2.54.06.17.1.3.13.4l-1.02.36c-.02-.11-.06-.24-.12-.41-.06-.16-.12-.34-.19-.52-.07-.18-.14-.36-.2-.53-.07-.17-.13-.31-.18-.42l1.01-.33Z" style="fill:#fff; stroke-width:0px;"/><path d="M395.17,143.55c-.04.08-.07.17-.1.28-.03.11-.06.21-.08.3-.04.21-.1.44-.18.7-.07.26-.16.52-.26.8s-.22.55-.36.82c-.14.27-.29.53-.47.76-.25.34-.55.66-.89.95-.34.29-.72.56-1.14.8s-.88.44-1.38.6l-.92-1.02c.56-.14,1.05-.3,1.46-.5.41-.2.76-.42,1.06-.68.3-.25.57-.53.8-.81.19-.24.35-.49.48-.77.13-.28.24-.56.33-.83.09-.28.15-.54.18-.78h-3.94c-.2,0-.39,0-.57,0-.18,0-.33.01-.44.03v-1.19c.08.01.19.02.31.03.12.01.25.02.37.03.13,0,.24,0,.33,0h3.92c.08,0,.19,0,.31,0,.12,0,.24-.03.35-.06l.83.54ZM394.14,142.89c0-.19.05-.36.14-.51.09-.16.22-.28.37-.37s.32-.14.5-.14.36.05.51.14.28.21.37.37c.09.16.14.33.14.51s-.04.35-.14.5c-.09.15-.21.28-.37.37s-.33.14-.51.14-.35-.05-.5-.14-.28-.22-.37-.37c-.09-.15-.14-.32-.14-.5ZM394.67,142.89c0,.14.05.25.14.34.1.09.21.14.34.14s.25-.05.35-.14c.1-.09.14-.21.14-.34s-.05-.25-.14-.35c-.1-.1-.21-.14-.35-.14s-.24.05-.34.14c-.1.1-.14.21-.14.35Z" style="fill:#fff; stroke-width:0px;"/><polygon points="374.51 135.21 364.42 135.21 365.09 130.72 373.84 130.72 374.51 135.21" style="fill:#8097c7; stroke-width:0px;"/><rect x="348.61" y="102.04" width="41.71" height="28.11" rx="1.39" ry="1.39" style="fill:#8097c7; stroke-width:0px;"/><rect x="362.19" y="135.79" width="14.2" height="1.24" rx=".56" ry=".56" style="fill:#8097c7; stroke-width:0px;"/><rect x="350.38" y="103.81" width="38.16" height="24.56" style="fill:#8097c7; stroke-width:0px;"/><rect x="350.38" y="103.81" width="38.16" height="24.56" style="fill:#fff; stroke-width:0px;"/><g style="clip-path:url(#c);"><circle cx="369.46" cy="131.9" r="22.84" style="fill:#00c2c7; stroke-width:0px;"/><circle cx="369.46" cy="131.9" r="22.84" style="fill:none; stroke-width:0px;"/><line x1="369.46" y1="109.07" x2="369.46" y2="154.74" style="fill:none; stroke:#fff; stroke-linecap:round; stroke-linejoin:round; stroke-width:1.11px;"/><line x1="346.63" y1="131.9" x2="392.3" y2="131.9" style="fill:none; stroke:#fff; stroke-linecap:round; stroke-linejoin:round; stroke-width:1.11px;"/><ellipse cx="369.46" cy="131.9" rx="17.4" ry="22.84" style="fill:none; stroke:#fff; stroke-linecap:round; stroke-linejoin:round; stroke-width:1.11px;"/><ellipse cx="369.46" cy="131.9" rx="9.05" ry="22.84" style="fill:none; stroke:#fff; stroke-linecap:round; stroke-linejoin:round; stroke-width:1.11px;"/><ellipse cx="369.46" cy="131.9" rx="22.84" ry="17.4" style="fill:none; stroke:#fff; stroke-linecap:round; stroke-linejoin:round; stroke-width:1.11px;"/><ellipse cx="369.46" cy="131.9" rx="22.84" ry="9.05" style="fill:none; stroke:#fff; stroke-linecap:round; stroke-linejoin:round; stroke-width:1.11px;"/></g><path d="M378.77,113.94c-.64-1.13-1.66-3.18-1.66-3.87,0-.92.74-1.66,1.66-1.66s1.66.74,1.66,1.66c0,.69-1.02,2.74-1.66,3.87Z" style="fill:#fff; stroke-width:0px;"/><path d="M378.77,108.04c-1.12,0-2.03.91-2.03,2.03,0,.93,1.39,3.53,1.87,4.34.04.06.1.09.16.09s.12-.03.16-.09c.48-.81,1.87-3.41,1.87-4.34,0-1.12-.91-2.03-2.03-2.03Z" style="fill:#8097c7; stroke-width:0px;"/><circle cx="378.77" cy="110.07" r=".74" style="fill:#fff; stroke-width:0px;"/><path d="M364.42,113.73c-1.12,0-2.03.91-2.03,2.03,0,.93,1.39,3.53,1.87,4.34.04.06.1.09.16.09s.12-.03.16-.09c.48-.81,1.87-3.41,1.87-4.34,0-1.12-.91-2.03-2.03-2.03Z" style="fill:#8097c7; stroke-width:0px;"/><circle cx="364.42" cy="115.76" r=".74" style="fill:#fff; stroke-width:0px;"/><path d="M360.17,111.7c-1.12,0-2.03.91-2.03,2.03,0,.93,1.39,3.53,1.87,4.34.04.06.1.09.16.09s.12-.03.16-.09c.48-.81,1.87-3.41,1.87-4.34,0-1.12-.91-2.03-2.03-2.03Z" style="fill:#8097c7; stroke-width:0px;"/><circle cx="360.17" cy="113.73" r=".74" style="fill:#fff; stroke-width:0px;"/><rect x="350.38" y="103.81" width="38.16" height="24.56" style="fill:none; stroke:#8097c7; stroke-linecap:round; stroke-miterlimit:10; stroke-width:.91px;"/><path d="M329.82,93.94h-1.35l5.22-11.93h1.19l5.19,11.93h-1.36l-1.33-3.13h-6.24l-1.31,3.13ZM331.59,89.7h5.32l-2.66-6.33-2.66,6.33Z" style="fill:#fff; stroke-width:0px;"/><path d="M341.63,87.79c0-.21,0-.49-.02-.83-.01-.34-.03-.64-.05-.91h1.11c.02.21.04.45.05.71.01.26.02.47.02.64h.03c.23-.46.57-.83,1.02-1.12.45-.29.97-.43,1.54-.43.15,0,.28,0,.4.02.12.01.24.03.37.07l-.15,1.08c-.07-.02-.18-.04-.34-.07-.16-.02-.32-.03-.48-.03-.31,0-.6.06-.89.17s-.53.29-.74.53c-.21.24-.38.55-.51.93-.13.38-.2.83-.2,1.36v4.04h-1.16v-6.15Z" style="fill:#fff; stroke-width:0px;"/><path d="M353.08,87.86c-.19-.3-.48-.55-.84-.75-.37-.2-.77-.29-1.2-.29-.47,0-.89.08-1.26.24-.38.16-.7.39-.96.67-.27.29-.47.62-.61,1.01-.14.39-.21.81-.21,1.26s.07.87.21,1.25c.14.38.34.72.61,1,.26.29.58.51.96.67.38.16.8.24,1.26.24.51,0,.94-.1,1.3-.29.35-.19.64-.44.87-.74l.87.64c-.34.42-.76.75-1.25.99-.49.25-1.09.37-1.78.37-.65,0-1.23-.1-1.76-.31-.52-.21-.97-.5-1.34-.87-.37-.37-.66-.81-.86-1.31-.2-.51-.31-1.06-.31-1.65s.1-1.15.31-1.65c.2-.51.49-.94.86-1.31.37-.37.82-.66,1.34-.87.52-.21,1.11-.31,1.76-.31.53,0,1.08.12,1.63.35.55.23,1,.57,1.34,1.02l-.9.64Z" style="fill:#fff; stroke-width:0px;"/><path d="M365.17,84.15c-.42-.44-.92-.78-1.5-1.02-.58-.24-1.25-.36-2-.36s-1.47.14-2.09.42c-.62.28-1.15.66-1.58,1.14-.43.48-.77,1.03-1,1.66-.23.63-.35,1.29-.35,1.99s.12,1.36.35,1.99c.23.63.57,1.18,1,1.65.43.47.96.85,1.58,1.13.62.28,1.32.42,2.09.42.68,0,1.31-.07,1.88-.22s1.03-.33,1.38-.56v-3.62h-2.81v-1.06h4.04v5.37c-.66.39-1.37.69-2.13.88-.76.19-1.55.29-2.37.29-.91,0-1.75-.16-2.52-.47-.77-.31-1.44-.75-2-1.31-.56-.56-.99-1.22-1.3-1.98-.31-.76-.47-1.6-.47-2.51s.16-1.75.48-2.51c.32-.76.76-1.42,1.32-1.98.56-.56,1.23-.99,2-1.31.77-.31,1.6-.47,2.5-.47.97,0,1.81.14,2.52.42.72.28,1.33.67,1.84,1.18l-.85.84Z" style="fill:#fff; stroke-width:0px;"/><path d="M370.21,93.94h-1.23v-11.93h1.23v11.93Z" style="fill:#fff; stroke-width:0px;"/><path d="M378.95,83.93c-.26-.36-.6-.65-1.01-.87s-.9-.33-1.48-.33c-.3,0-.6.04-.9.13-.31.09-.59.23-.84.41-.25.18-.45.42-.61.7-.15.28-.23.61-.23.99s.07.69.22.94c.15.25.34.46.59.63s.52.32.84.43c.31.11.64.22.98.34.42.14.84.28,1.27.44.43.16.81.36,1.15.62.34.25.62.57.84.96.22.39.32.88.32,1.48s-.12,1.11-.35,1.55-.53.79-.9,1.07c-.37.28-.79.49-1.26.62-.47.13-.95.2-1.42.2-.36,0-.73-.04-1.09-.11-.36-.07-.71-.18-1.04-.32-.33-.14-.64-.33-.92-.55-.28-.22-.53-.48-.75-.77l1.06-.77c.26.43.63.78,1.1,1.07.47.29,1.03.43,1.67.43.31,0,.62-.05.94-.14.32-.1.61-.24.86-.44.26-.2.47-.44.63-.73.17-.29.25-.62.25-1.01,0-.42-.08-.76-.25-1.04-.17-.28-.39-.51-.66-.69s-.59-.34-.94-.46c-.35-.12-.72-.25-1.11-.37-.4-.12-.79-.26-1.18-.42-.39-.16-.74-.36-1.04-.61-.31-.25-.56-.56-.74-.94s-.28-.83-.28-1.36c0-.57.12-1.07.35-1.48.23-.42.54-.76.91-1.03.38-.27.79-.47,1.25-.59.45-.12.9-.19,1.35-.19.82,0,1.52.14,2.1.43.58.29,1.02.63,1.31,1.02l-.97.78Z" style="fill:#fff; stroke-width:0px;"/><path d="M386.98,82.01h3.41c.61,0,1.17.06,1.67.19.5.13.93.33,1.29.59.36.26.63.6.83.99.19.4.29.87.29,1.41s-.1,1.01-.3,1.41c-.2.4-.48.73-.84.99-.36.26-.79.46-1.3.6-.51.13-1.07.2-1.68.2h-2.15v5.54h-1.23v-11.93ZM388.21,87.37h2.08c.97,0,1.7-.19,2.2-.56.5-.37.75-.91.75-1.62s-.26-1.29-.78-1.63c-.52-.34-1.24-.52-2.17-.52h-2.08v4.33Z" style="fill:#fff; stroke-width:0px;"/><path d="M396.32,87.79c0-.21,0-.49-.02-.83-.01-.34-.03-.64-.05-.91h1.11c.02.21.04.45.05.71.01.26.02.47.02.64h.03c.23-.46.57-.83,1.02-1.12.45-.29.97-.43,1.54-.43.15,0,.28,0,.4.02.12.01.24.03.37.07l-.15,1.08c-.07-.02-.18-.04-.34-.07-.16-.02-.32-.03-.48-.03-.31,0-.6.06-.89.17s-.53.29-.74.53c-.21.24-.38.55-.51.93-.13.38-.2.83-.2,1.36v4.04h-1.16v-6.15Z" style="fill:#fff; stroke-width:0px;"/><path d="M409.95,90c0,.6-.11,1.15-.32,1.65-.21.51-.5.94-.88,1.31-.38.37-.82.66-1.35.87-.52.21-1.1.31-1.72.31s-1.18-.1-1.71-.31c-.52-.21-.97-.5-1.35-.87-.38-.37-.67-.81-.88-1.31-.21-.51-.32-1.06-.32-1.65s.11-1.15.32-1.65c.21-.51.5-.94.88-1.31.38-.37.82-.66,1.35-.87.52-.21,1.09-.31,1.71-.31s1.2.1,1.72.31c.52.21.97.5,1.35.87.38.37.67.81.88,1.31.21.51.32,1.06.32,1.65ZM408.72,90c0-.44-.07-.85-.21-1.24-.14-.39-.34-.72-.61-1.01-.26-.29-.58-.51-.96-.68s-.8-.25-1.26-.25-.88.08-1.25.25c-.37.17-.69.4-.95.68-.26.29-.46.62-.61,1.01-.14.39-.21.8-.21,1.24s.07.85.21,1.24c.14.39.34.72.61,1.01.26.29.58.51.95.67.37.16.79.24,1.25.24s.89-.08,1.26-.24c.38-.16.69-.39.96-.67.26-.29.46-.62.61-1.01.14-.39.21-.8.21-1.24Z" style="fill:#fff; stroke-width:0px;"/><path d="M346.35,39.81h-1.35l5.22-11.93h1.19l5.19,11.93h-1.36l-1.33-3.13h-6.24l-1.31,3.13ZM348.12,35.57h5.32l-2.66-6.33-2.66,6.33Z" style="fill:#fff; stroke-width:0px;"/><path d="M358.16,33.66c0-.21,0-.49-.02-.83-.01-.34-.03-.64-.05-.91h1.11c.02.21.04.45.05.71.01.26.02.47.02.64h.03c.23-.46.57-.83,1.02-1.12.45-.29.97-.43,1.54-.43.15,0,.28,0,.4.02.12.01.24.03.37.07l-.15,1.08c-.07-.02-.18-.04-.34-.07-.16-.02-.32-.03-.48-.03-.31,0-.6.06-.89.17s-.53.29-.74.53c-.21.24-.38.55-.51.93-.13.38-.2.83-.2,1.36v4.04h-1.16v-6.15Z" style="fill:#fff; stroke-width:0px;"/><path d="M369.62,33.73c-.19-.3-.48-.55-.84-.75-.37-.2-.77-.29-1.2-.29-.47,0-.89.08-1.26.24-.38.16-.7.39-.96.67-.27.29-.47.62-.61,1.01-.14.39-.21.81-.21,1.26s.07.87.21,1.25c.14.38.34.72.61,1,.26.29.58.51.96.67.38.16.8.24,1.26.24.51,0,.94-.1,1.3-.29.35-.19.64-.44.87-.74l.87.64c-.34.42-.76.75-1.25.99-.49.25-1.09.37-1.78.37-.65,0-1.23-.1-1.76-.31-.52-.21-.97-.5-1.34-.87-.37-.37-.66-.81-.86-1.31-.2-.51-.31-1.06-.31-1.65s.1-1.15.31-1.65c.2-.51.49-.94.86-1.31.37-.37.82-.66,1.34-.87.52-.21,1.11-.31,1.76-.31.53,0,1.08.12,1.63.35.55.23,1,.57,1.34,1.02l-.9.64Z" style="fill:#fff; stroke-width:0px;"/><path d="M381.7,30.02c-.42-.44-.92-.78-1.5-1.02-.58-.24-1.25-.36-2-.36s-1.47.14-2.09.42c-.62.28-1.15.66-1.58,1.14-.43.48-.77,1.03-1,1.66-.23.63-.35,1.29-.35,1.99s.12,1.36.35,1.99c.23.63.57,1.18,1,1.65.43.47.96.85,1.58,1.13.62.28,1.32.42,2.09.42.68,0,1.31-.07,1.88-.22s1.03-.33,1.38-.56v-3.62h-2.81v-1.06h4.04v5.37c-.66.39-1.37.69-2.13.88-.76.19-1.55.29-2.37.29-.91,0-1.75-.16-2.52-.47-.77-.31-1.44-.75-2-1.31-.56-.56-.99-1.22-1.3-1.98-.31-.76-.47-1.6-.47-2.51s.16-1.75.48-2.51c.32-.76.76-1.42,1.32-1.98.56-.56,1.23-.99,2-1.31s1.6-.47,2.5-.47c.97,0,1.81.14,2.52.42.72.28,1.33.67,1.84,1.18l-.85.84Z" style="fill:#fff; stroke-width:0px;"/><path d="M386.75,39.81h-1.23v-11.93h1.23v11.93Z" style="fill:#fff; stroke-width:0px;"/><path d="M395.48,29.8c-.26-.36-.6-.65-1.01-.87s-.9-.33-1.48-.33c-.3,0-.6.04-.9.13-.31.09-.59.23-.84.41-.25.18-.45.42-.61.7-.15.28-.23.61-.23.99s.07.69.22.94c.15.25.34.46.59.63s.52.32.84.43c.31.11.64.22.98.34.42.14.84.28,1.27.44.43.16.81.36,1.15.62.34.25.62.57.84.96.22.39.32.88.32,1.48s-.12,1.11-.35,1.55-.53.79-.9,1.07c-.37.28-.79.49-1.26.62-.47.13-.95.2-1.42.2-.36,0-.73-.04-1.09-.11-.36-.07-.71-.18-1.04-.32-.33-.14-.64-.33-.92-.55s-.53-.48-.75-.77l1.06-.78c.26.43.63.78,1.1,1.07.47.29,1.03.43,1.67.43.31,0,.62-.05.94-.14.32-.1.61-.24.86-.44.26-.2.47-.44.63-.73.17-.29.25-.62.25-1.01,0-.42-.08-.76-.25-1.04-.17-.28-.39-.51-.66-.69s-.59-.34-.94-.46c-.35-.12-.72-.25-1.11-.37-.4-.12-.79-.26-1.18-.42-.39-.16-.74-.36-1.04-.61s-.56-.56-.74-.94-.28-.83-.28-1.36c0-.57.12-1.07.35-1.48.23-.42.54-.76.91-1.03.38-.27.79-.47,1.25-.59.45-.12.9-.19,1.35-.19.82,0,1.52.14,2.1.43s1.02.63,1.31,1.02l-.97.78Z" style="fill:#fff; stroke-width:0px;"/><path d="M403.43,39.81h-1.35l5.22-11.93h1.19l5.19,11.93h-1.36l-1.33-3.13h-6.24l-1.31,3.13ZM405.2,35.57h5.32l-2.66-6.33-2.66,6.33Z" style="fill:#fff; stroke-width:0px;"/><path d="M416.4,43.86h-1.16v-11.93h1.16v1.36h.05c.33-.52.77-.91,1.32-1.17.55-.26,1.11-.4,1.68-.4.63,0,1.19.11,1.7.32.51.21.94.51,1.3.88s.64.81.84,1.31.3,1.05.3,1.63-.1,1.13-.3,1.63c-.2.51-.48.94-.84,1.31s-.79.66-1.3.88c-.51.21-1.07.32-1.7.32-.57,0-1.13-.13-1.68-.4-.55-.26-.99-.64-1.32-1.14h-.05v5.37ZM422.35,35.87c0-.44-.07-.85-.2-1.24-.14-.39-.33-.72-.59-1.01-.26-.29-.57-.51-.95-.68-.38-.17-.8-.25-1.28-.25-.44,0-.85.08-1.23.24-.38.16-.7.39-.97.67-.27.29-.49.62-.64,1.01-.15.39-.23.81-.23,1.26s.08.87.23,1.26.37.72.64,1c.27.28.6.5.97.67.38.16.78.24,1.23.24.48,0,.9-.08,1.28-.24.38-.16.69-.39.95-.67.26-.29.45-.62.59-1.01.14-.39.2-.8.2-1.24Z" style="fill:#fff; stroke-width:0px;"/><path d="M426.91,43.86h-1.16v-11.93h1.16v1.36h.05c.33-.52.77-.91,1.32-1.17.55-.26,1.11-.4,1.68-.4.63,0,1.19.11,1.7.32.51.21.94.51,1.3.88s.64.81.84,1.31.3,1.05.3,1.63-.1,1.13-.3,1.63c-.2.51-.48.94-.84,1.31s-.79.66-1.3.88c-.51.21-1.07.32-1.7.32-.57,0-1.13-.13-1.68-.4-.55-.26-.99-.64-1.32-1.14h-.05v5.37ZM432.86,35.87c0-.44-.07-.85-.2-1.24-.14-.39-.33-.72-.59-1.01-.26-.29-.57-.51-.95-.68-.38-.17-.8-.25-1.28-.25-.44,0-.85.08-1.23.24-.38.16-.7.39-.97.67-.27.29-.49.62-.64,1.01-.15.39-.23.81-.23,1.26s.08.87.23,1.26c.15.39.37.72.64,1,.27.28.6.5.97.67.38.16.78.24,1.23.24.48,0,.9-.08,1.28-.24.38-.16.69-.39.95-.67.26-.29.45-.62.59-1.01.14-.39.2-.8.2-1.24Z" style="fill:#fff; stroke-width:0px;"/><path d="M440.5,33.8c-.17-.33-.43-.59-.78-.8-.35-.21-.74-.31-1.19-.31-.2,0-.41.02-.61.07-.2.05-.39.12-.55.22-.16.1-.29.23-.38.39-.1.16-.15.34-.15.56,0,.37.15.65.46.85s.79.36,1.45.5c.94.19,1.64.47,2.09.83.45.37.67.86.67,1.47,0,.45-.09.83-.26,1.14-.18.31-.41.56-.69.76-.28.2-.61.34-.96.42-.36.08-.72.13-1.08.13-.6,0-1.19-.12-1.76-.37-.57-.25-1.04-.63-1.4-1.16l.92-.67c.2.35.51.64.9.88.4.24.84.35,1.31.35.25,0,.49-.02.72-.07.23-.04.43-.12.6-.24.17-.11.31-.26.41-.43.1-.17.15-.39.15-.65,0-.42-.2-.73-.61-.94-.4-.21-.99-.4-1.75-.58-.24-.06-.49-.13-.76-.21-.27-.08-.51-.21-.74-.37-.23-.16-.42-.37-.56-.62-.15-.25-.22-.56-.22-.93,0-.4.08-.75.24-1.04.16-.29.37-.52.64-.71s.57-.32.91-.41c.34-.09.69-.13,1.06-.13.56,0,1.1.12,1.62.37.52.25.92.6,1.18,1.04l-.89.66Z" style="fill:#fff; stroke-width:0px;"/><rect x="3.03" y="3.03" width="157.37" height="96.84" style="fill:#fff; stroke-width:0px;"/><path d="M157.37,6.05v90.79H6.05V6.05h151.32M163.42,0H0v102.89h163.42V0h0Z" style="fill:#328ce5; stroke-width:0px;"/><path d="M64.39,81.02c.06,0,.13.02.22.03.09.01.2.03.31.03.12,0,.25.01.39.01h5.56c.23,0,.41,0,.55-.02.14-.01.27-.03.38-.04v1.13c-.09-.01-.21-.02-.36-.02-.15,0-.34,0-.57,0h-5.56c-.14,0-.27,0-.38,0-.12,0-.22,0-.31.01-.09,0-.17.01-.23.02v-1.15ZM67.19,79.49c-.01.08-.02.19-.03.32-.01.13-.02.28-.02.44v3.03c0,.12,0,.24,0,.36,0,.12,0,.22.01.3,0,.09,0,.16.01.22h-1.19c.01-.06.02-.14.03-.22,0-.09.01-.19.02-.3s0-.24,0-.36v-3.03c0-.12,0-.25-.01-.38,0-.13-.02-.26-.04-.38h1.2ZM70.25,82.42c0,.53-.04,1-.11,1.43-.08.43-.21.81-.39,1.16-.19.35-.45.66-.78.94-.33.28-.75.53-1.26.75l-.91-.86c.41-.14.76-.3,1.05-.47.3-.18.54-.39.73-.65.19-.26.33-.57.43-.93.09-.36.14-.81.14-1.33v-2.25c0-.17,0-.33-.02-.46-.01-.13-.02-.24-.03-.33h1.21c-.01.08-.02.19-.04.33-.01.13-.02.29-.02.46v2.21Z" style="fill:#070731; stroke-width:0px;"/><path d="M73.84,82.24c.1,0,.23.01.39.02.16,0,.32.02.5.02.17,0,.33,0,.48,0h4.55c.2,0,.38,0,.56-.02.17-.01.32-.02.43-.03v1.33c-.1,0-.24-.01-.43-.03-.19-.01-.38-.02-.56-.02h-4.55c-.24,0-.49,0-.75.01-.25,0-.46.02-.62.03v-1.33Z" style="fill:#070731; stroke-width:0px;"/><path d="M83.84,83.53c.1-.24.19-.49.28-.75s.17-.53.23-.81c.07-.28.13-.56.18-.83s.09-.55.11-.82l1.24.25c-.02.08-.05.17-.08.28s-.05.21-.08.31c-.02.1-.04.19-.05.25-.03.15-.07.33-.12.53s-.11.43-.18.67c-.07.23-.14.47-.21.7-.07.23-.14.45-.22.65-.1.27-.22.55-.36.85-.14.29-.29.58-.44.85-.16.27-.31.51-.45.73l-1.19-.5c.27-.35.52-.74.76-1.16s.42-.82.56-1.19ZM88.03,83.35c-.08-.23-.18-.47-.28-.72-.1-.25-.21-.51-.32-.76-.11-.25-.22-.49-.33-.72-.11-.23-.21-.42-.3-.58l1.13-.36c.08.16.18.36.3.59.11.23.23.48.34.73.11.26.22.51.33.77.11.25.2.48.29.69.07.19.15.41.24.66.09.25.18.52.27.79.09.27.18.54.26.8.08.26.15.49.21.7l-1.25.41c-.07-.33-.16-.67-.25-1.02-.1-.34-.2-.68-.3-1.02-.11-.33-.21-.65-.33-.96ZM88.82,79.4c.07.1.15.22.23.36s.16.28.24.42c.08.14.14.27.2.37l-.68.3c-.09-.17-.19-.37-.31-.6-.12-.22-.23-.42-.35-.58l.67-.28ZM89.82,79.02c.07.11.15.23.24.38.09.14.17.29.25.42.08.14.14.26.2.35l-.68.29c-.08-.18-.19-.37-.32-.59s-.25-.41-.36-.57l.67-.28Z" style="fill:#070731; stroke-width:0px;"/><path d="M92.14,82.24c.1,0,.23.01.39.02.16,0,.32.02.5.02.17,0,.33,0,.48,0h4.55c.2,0,.38,0,.56-.02.17-.01.32-.02.43-.03v1.33c-.1,0-.24-.01-.43-.03-.19-.01-.38-.02-.56-.02h-4.55c-.24,0-.49,0-.75.01-.25,0-.46.02-.62.03v-1.33Z" style="fill:#070731; stroke-width:0px;"/><rect x="61.69" y="56.28" width="40.04" height="15.53" style="fill:#fff; stroke:#8097c7; stroke-linecap:round; stroke-linejoin:round; stroke-width:1.82px;"/><rect x="67.39" y="61.9" width="17.75" height="4.29" style="fill:#00c2c7; stroke:#00c2c7; stroke-linecap:round; stroke-linejoin:round; stroke-width:1.82px;"/><line x1="88.98" y1="61.9" x2="88.98" y2="66.19" style="fill:none; stroke:#8097c7; stroke-linecap:round; stroke-linejoin:round; stroke-width:1.82px;"/><line x1="92.5" y1="61.9" x2="92.5" y2="66.19" style="fill:none; stroke:#8097c7; stroke-linecap:round; stroke-linejoin:round; stroke-width:1.82px;"/><line x1="96.03" y1="61.9" x2="96.03" y2="66.19" style="fill:none; stroke:#8097c7; stroke-linecap:round; stroke-linejoin:round; stroke-width:1.82px;"/><rect x="61.69" y="40.81" width="40.04" height="15.53" style="fill:#fff; stroke:#8097c7; stroke-linecap:round; stroke-linejoin:round; stroke-width:1.82px;"/><rect x="67.39" y="46.43" width="17.75" height="4.29" style="fill:#00c2c7; stroke:#00c2c7; stroke-linecap:round; stroke-linejoin:round; stroke-width:1.82px;"/><line x1="88.98" y1="46.43" x2="88.98" y2="50.72" style="fill:none; stroke:#8097c7; stroke-linecap:round; stroke-linejoin:round; stroke-width:1.82px;"/><line x1="92.5" y1="46.43" x2="92.5" y2="50.72" style="fill:none; stroke:#8097c7; stroke-linecap:round; stroke-linejoin:round; stroke-width:1.82px;"/><line x1="96.03" y1="46.43" x2="96.03" y2="50.72" style="fill:none; stroke:#8097c7; stroke-linecap:round; stroke-linejoin:round; stroke-width:1.82px;"/><path d="M16.48,30.22h-1.35l5.22-11.93h1.19l5.19,11.93h-1.36l-1.33-3.13h-6.24l-1.31,3.13ZM18.25,25.97h5.32l-2.66-6.34-2.66,6.34Z" style="fill:#328ce5; stroke-width:0px;"/><path d="M28.29,24.07c0-.21,0-.49-.02-.83-.01-.34-.03-.64-.05-.91h1.11c.02.21.04.45.05.71.01.26.02.47.02.64h.03c.23-.46.57-.83,1.02-1.12.45-.29.97-.43,1.54-.43.15,0,.28,0,.4.02.12.01.24.03.37.07l-.15,1.08c-.07-.02-.18-.04-.34-.07-.16-.02-.32-.03-.48-.03-.31,0-.6.06-.89.17-.28.11-.53.29-.74.53-.21.24-.38.55-.51.93-.13.38-.2.83-.2,1.36v4.04h-1.16v-6.15Z" style="fill:#328ce5; stroke-width:0px;"/><path d="M39.75,24.13c-.19-.3-.48-.55-.84-.75-.37-.2-.77-.29-1.2-.29-.47,0-.89.08-1.26.24-.38.16-.7.39-.96.67-.27.29-.47.62-.61,1.01-.14.39-.21.81-.21,1.25s.07.87.21,1.25c.14.38.34.72.61,1,.26.29.58.51.96.67.38.16.8.24,1.26.24.51,0,.94-.1,1.3-.29.35-.19.64-.44.87-.74l.87.64c-.34.42-.76.75-1.25.99-.49.25-1.09.37-1.78.37-.65,0-1.23-.1-1.76-.31s-.97-.5-1.34-.87c-.37-.37-.66-.81-.86-1.31-.2-.51-.31-1.06-.31-1.65s.1-1.15.31-1.65.49-.94.86-1.31c.37-.37.82-.66,1.34-.87s1.11-.31,1.76-.31c.53,0,1.08.12,1.63.35.55.23,1,.57,1.34,1.02l-.9.64Z" style="fill:#328ce5; stroke-width:0px;"/><path d="M51.83,20.43c-.42-.44-.92-.78-1.5-1.02-.58-.24-1.25-.36-2-.36s-1.47.14-2.09.42c-.62.28-1.15.66-1.58,1.14-.43.48-.77,1.03-1,1.66-.23.63-.35,1.29-.35,1.99s.12,1.36.35,1.99c.23.63.57,1.18,1,1.65.43.47.96.85,1.58,1.13.62.28,1.32.42,2.09.42.68,0,1.31-.07,1.88-.22.57-.15,1.03-.33,1.38-.56v-3.62h-2.81v-1.06h4.04v5.37c-.66.39-1.37.69-2.13.88-.76.19-1.55.29-2.37.29-.91,0-1.75-.16-2.52-.47-.77-.31-1.44-.75-2-1.31-.56-.56-.99-1.22-1.3-1.98-.31-.76-.47-1.6-.47-2.51s.16-1.75.48-2.51c.32-.76.76-1.42,1.32-1.98.56-.56,1.23-.99,2-1.31s1.6-.47,2.5-.47c.97,0,1.81.14,2.52.42.72.28,1.33.67,1.84,1.18l-.85.84Z" style="fill:#328ce5; stroke-width:0px;"/><path d="M56.88,30.22h-1.23v-11.93h1.23v11.93Z" style="fill:#328ce5; stroke-width:0px;"/><path d="M65.61,20.21c-.26-.36-.6-.65-1.01-.87s-.9-.33-1.48-.33c-.3,0-.6.04-.9.13-.31.09-.59.23-.84.41-.25.18-.45.42-.61.7-.15.28-.23.61-.23.99s.07.69.22.94c.15.25.34.46.59.63s.52.32.84.43c.31.11.64.22.98.34.42.14.84.28,1.27.44.43.16.81.36,1.15.62.34.25.62.57.84.96.22.39.32.88.32,1.48s-.12,1.11-.35,1.55c-.23.43-.53.79-.9,1.07-.37.28-.79.49-1.26.62-.47.14-.95.2-1.42.2-.36,0-.73-.04-1.09-.11-.36-.07-.71-.18-1.04-.32-.33-.14-.64-.33-.92-.55s-.53-.48-.75-.77l1.06-.78c.26.43.63.78,1.1,1.07.47.29,1.03.43,1.67.43.31,0,.62-.05.94-.14.32-.1.61-.24.86-.44.26-.2.47-.44.63-.73.17-.29.25-.62.25-1.01,0-.42-.08-.76-.25-1.04-.17-.28-.39-.51-.66-.69-.27-.19-.59-.34-.94-.46-.35-.12-.72-.25-1.11-.37-.4-.12-.79-.26-1.18-.42-.39-.16-.74-.36-1.04-.62s-.56-.56-.74-.94-.28-.83-.28-1.36c0-.57.12-1.07.35-1.48.23-.42.54-.76.91-1.03.38-.27.79-.47,1.25-.59.45-.12.9-.19,1.35-.19.82,0,1.52.14,2.1.43.58.29,1.02.63,1.31,1.02l-.97.78Z" style="fill:#328ce5; stroke-width:0px;"/><path d="M74.87,29.14h6.47v1.08h-7.69v-11.93h7.49v1.08h-6.26v4.11h5.85v1.06h-5.85v4.6Z" style="fill:#328ce5; stroke-width:0px;"/><path d="M84.22,22.33c.02.21.04.45.05.71.01.26.02.47.02.64h.03c.23-.46.6-.83,1.11-1.12.51-.29,1.05-.43,1.62-.43,1.01,0,1.77.3,2.28.89s.76,1.38.76,2.36v4.84h-1.16v-4.36c0-.42-.03-.79-.1-1.13s-.18-.63-.35-.87c-.17-.24-.39-.43-.67-.56-.28-.13-.63-.2-1.05-.2-.31,0-.61.06-.9.19-.29.12-.55.31-.78.56-.23.25-.41.57-.55.96-.14.39-.2.85-.2,1.37v4.04h-1.16v-6.15c0-.21,0-.49-.02-.83-.01-.34-.03-.64-.05-.91h1.11Z" style="fill:#328ce5; stroke-width:0px;"/><path d="M96.4,23.29h-2.25v4.6c0,.29.03.53.09.72.06.19.14.34.25.45.11.11.24.18.38.22.15.04.31.06.48.06.16,0,.33-.02.5-.07.18-.04.34-.11.5-.19l.05.99c-.2.08-.42.14-.64.18-.22.04-.46.06-.72.06-.22,0-.44-.03-.68-.08-.24-.06-.46-.16-.67-.32-.2-.16-.37-.37-.5-.64s-.2-.62-.2-1.06v-4.92h-1.65v-.96h1.65v-2.22h1.16v2.22h2.25v.96Z" style="fill:#328ce5; stroke-width:0px;"/><path d="M105.1,26.04v.25c0,.09,0,.19-.02.29h-6.6c.01.39.09.76.24,1.11.15.35.35.65.61.91.26.26.57.46.92.61s.73.23,1.14.23c.6,0,1.12-.14,1.56-.41.44-.28.77-.59,1-.95l.87.67c-.48.6-1,1.02-1.58,1.28-.57.26-1.19.39-1.85.39-.59,0-1.14-.1-1.65-.31-.51-.21-.94-.5-1.31-.87s-.65-.81-.86-1.31c-.21-.51-.32-1.06-.32-1.65s.1-1.15.31-1.65.49-.94.85-1.31.79-.66,1.28-.87c.49-.21,1.02-.31,1.59-.31.63,0,1.18.1,1.65.31s.88.49,1.19.84c.32.35.56.77.73,1.24.16.47.25.98.25,1.52ZM103.92,25.67c-.03-.74-.28-1.36-.72-1.84s-1.09-.73-1.91-.73c-.39,0-.74.07-1.07.21-.33.14-.62.33-.87.57-.25.24-.45.52-.6.83-.15.31-.23.63-.26.97h5.43Z" style="fill:#328ce5; stroke-width:0px;"/><path d="M107.24,24.07c0-.21,0-.49-.02-.83-.01-.34-.03-.64-.05-.91h1.11c.02.21.04.45.05.71.01.26.02.47.02.64h.03c.23-.46.57-.83,1.02-1.12.45-.29.97-.43,1.54-.43.15,0,.28,0,.4.02.12.01.24.03.37.07l-.15,1.08c-.07-.02-.18-.04-.34-.07-.16-.02-.32-.03-.48-.03-.31,0-.6.06-.89.17-.28.11-.53.29-.74.53-.21.24-.38.55-.51.93-.13.38-.2.83-.2,1.36v4.04h-1.16v-6.15Z" style="fill:#328ce5; stroke-width:0px;"/><path d="M114.41,34.26h-1.16v-11.93h1.16v1.36h.05c.33-.52.77-.91,1.32-1.17.55-.26,1.11-.4,1.68-.4.63,0,1.19.11,1.7.32.51.21.94.51,1.3.88s.64.81.84,1.31c.2.51.3,1.05.3,1.63s-.1,1.13-.3,1.63c-.2.51-.48.94-.84,1.31s-.79.66-1.3.88c-.51.21-1.07.32-1.7.32-.57,0-1.13-.13-1.68-.4-.55-.26-.99-.64-1.32-1.14h-.05v5.37ZM120.37,26.27c0-.44-.07-.85-.2-1.24-.14-.39-.33-.72-.59-1.01-.26-.29-.57-.51-.95-.68-.38-.17-.8-.25-1.28-.25-.44,0-.85.08-1.23.24-.38.16-.7.39-.97.67-.27.29-.49.62-.64,1.01-.15.39-.23.81-.23,1.25s.08.87.23,1.26c.15.39.37.72.64,1,.27.28.6.5.97.67.38.16.78.24,1.23.24.48,0,.9-.08,1.28-.24.38-.16.69-.39.95-.67.26-.29.45-.62.59-1.01s.2-.8.2-1.24Z" style="fill:#328ce5; stroke-width:0px;"/><path d="M123.74,24.07c0-.21,0-.49-.02-.83-.01-.34-.03-.64-.05-.91h1.11c.02.21.04.45.05.71.01.26.02.47.02.64h.03c.23-.46.57-.83,1.02-1.12.45-.29.97-.43,1.54-.43.15,0,.28,0,.4.02.12.01.24.03.37.07l-.15,1.08c-.07-.02-.18-.04-.34-.07-.16-.02-.32-.03-.48-.03-.31,0-.6.06-.89.17-.28.11-.53.29-.74.53-.21.24-.38.55-.51.93-.13.38-.2.83-.2,1.36v4.04h-1.16v-6.15Z" style="fill:#328ce5; stroke-width:0px;"/><path d="M131.16,19.3c0,.24-.09.43-.26.58s-.36.23-.56.23-.39-.08-.56-.23c-.17-.15-.26-.35-.26-.58s.09-.43.26-.58c.17-.15.36-.23.56-.23s.39.08.56.23.26.35.26.58ZM130.92,30.22h-1.16v-7.89h1.16v7.89Z" style="fill:#328ce5; stroke-width:0px;"/><path d="M137.93,24.2c-.17-.33-.43-.59-.78-.8-.35-.21-.74-.31-1.19-.31-.2,0-.41.02-.61.07-.2.05-.39.12-.55.22-.16.1-.29.23-.38.39s-.15.34-.15.56c0,.37.15.65.46.85.31.2.79.36,1.45.5.94.19,1.64.47,2.09.83.45.36.67.86.67,1.47,0,.45-.09.83-.26,1.14-.18.31-.41.56-.69.76-.28.2-.61.34-.96.42-.36.08-.72.13-1.08.13-.6,0-1.19-.12-1.76-.37s-1.04-.63-1.4-1.16l.92-.67c.2.35.51.64.9.88.4.24.84.35,1.31.35.25,0,.49-.02.72-.07.23-.04.43-.12.6-.24.17-.11.31-.26.41-.43.1-.17.15-.39.15-.65,0-.42-.2-.73-.61-.93-.4-.21-.99-.4-1.75-.58-.24-.06-.49-.13-.76-.21-.27-.08-.51-.21-.74-.37-.23-.16-.42-.37-.56-.61-.15-.25-.22-.56-.22-.93,0-.4.08-.75.24-1.04.16-.29.37-.52.64-.71.27-.19.57-.32.91-.41.34-.09.69-.13,1.06-.13.56,0,1.1.12,1.62.37s.92.6,1.18,1.04l-.89.66Z" style="fill:#328ce5; stroke-width:0px;"/><path d="M148.29,26.04v.25c0,.09,0,.19-.02.29h-6.6c.01.39.09.76.24,1.11.15.35.35.65.61.91.26.26.57.46.92.61s.73.23,1.14.23c.6,0,1.12-.14,1.56-.41.44-.28.77-.59,1-.95l.87.67c-.48.6-1,1.02-1.58,1.28-.57.26-1.19.39-1.85.39-.59,0-1.14-.1-1.65-.31-.51-.21-.94-.5-1.31-.87s-.65-.81-.86-1.31c-.21-.51-.32-1.06-.32-1.65s.1-1.15.31-1.65.49-.94.85-1.31.79-.66,1.28-.87c.49-.21,1.02-.31,1.59-.31.63,0,1.18.1,1.65.31s.88.49,1.19.84c.32.35.56.77.73,1.24.16.47.25.98.25,1.52ZM147.11,25.67c-.03-.74-.28-1.36-.72-1.84s-1.09-.73-1.91-.73c-.39,0-.74.07-1.07.21-.33.14-.62.33-.87.57-.25.24-.45.52-.6.83-.15.31-.23.63-.26.97h5.43Z" style="fill:#328ce5; stroke-width:0px;"/></svg>