<?xml version="1.0" encoding="UTF-8"?><svg id="a" xmlns="http://www.w3.org/2000/svg" viewBox="0 0 120 19"><path d="M1.49,14.09H0L5.77.89h1.32l5.74,13.19h-1.51l-1.47-3.47H2.94l-1.45,3.47ZM3.45,9.39h5.89l-2.94-7.01-2.94,7.01Z" style="fill:#1245a0; stroke-width:0px;"/><path d="M14.55,7.29c0-.24,0-.54-.02-.91s-.03-.71-.06-1.01h1.23c.03.24.04.5.06.78.01.29.02.52.02.71h.04c.25-.51.63-.92,1.13-1.24.5-.32,1.07-.48,1.7-.48.16,0,.31,0,.44.02.13.01.27.04.41.07l-.17,1.19c-.08-.02-.2-.05-.38-.07-.18-.02-.35-.04-.53-.04-.34,0-.67.06-.98.19-.31.12-.59.32-.82.59-.23.27-.42.61-.57,1.02-.14.42-.22.92-.22,1.5v4.47h-1.28v-6.8Z" style="fill:#1245a0; stroke-width:0px;"/><path d="M27.22,7.36c-.21-.34-.53-.61-.93-.83-.41-.22-.85-.33-1.33-.33-.52,0-.98.09-1.4.27-.41.18-.77.43-1.07.75-.3.32-.52.69-.68,1.12-.16.43-.24.89-.24,1.39s.08.96.24,1.38c.16.42.38.79.67,1.11.29.32.64.57,1.06.75.42.18.88.27,1.4.27.57,0,1.04-.11,1.43-.32.39-.21.71-.48.96-.82l.96.71c-.38.46-.84.83-1.39,1.1-.55.27-1.2.41-1.97.41-.72,0-1.36-.12-1.94-.34-.58-.23-1.07-.55-1.48-.96-.41-.41-.73-.89-.95-1.45s-.34-1.17-.34-1.83.11-1.27.34-1.83c.23-.56.54-1.04.95-1.45.41-.41.9-.73,1.48-.96.58-.23,1.23-.34,1.94-.34.59,0,1.19.13,1.8.38.61.25,1.1.63,1.48,1.13l-1,.71Z" style="fill:#1245a0; stroke-width:0px;"/><path d="M40.59,3.26c-.47-.48-1.02-.86-1.66-1.13-.64-.27-1.38-.4-2.21-.4s-1.63.16-2.31.47c-.69.31-1.27.73-1.74,1.26-.48.53-.85,1.14-1.1,1.84-.26.7-.39,1.43-.39,2.2s.13,1.5.39,2.2c.26.7.63,1.3,1.1,1.83.48.52,1.06.94,1.74,1.25s1.46.47,2.31.47c.75,0,1.45-.08,2.08-.24.63-.16,1.14-.37,1.53-.61v-4.01h-3.11v-1.17h4.47v5.94c-.73.44-1.52.76-2.36.97-.84.21-1.72.32-2.62.32-1.01,0-1.94-.17-2.79-.52-.86-.35-1.59-.83-2.21-1.44-.62-.61-1.1-1.34-1.44-2.19-.35-.84-.52-1.77-.52-2.78s.18-1.93.53-2.78c.35-.84.84-1.57,1.46-2.19s1.36-1.1,2.21-1.44c.85-.35,1.77-.52,2.76-.52,1.07,0,2,.16,2.79.47.79.31,1.47.75,2.04,1.3l-.94.93Z" style="fill:#1245a0; stroke-width:0px;"/><path d="M46.17,14.09h-1.36V.89h1.36v13.19Z" style="fill:#1245a0; stroke-width:0px;"/><path d="M55.83,3.02c-.29-.4-.66-.72-1.11-.96s-1-.36-1.64-.36c-.33,0-.66.05-1,.15-.34.1-.65.25-.92.45-.28.2-.5.46-.67.77-.17.31-.25.67-.25,1.1s.08.77.25,1.04c.16.27.38.5.65.7s.58.35.92.47c.35.12.71.25,1.08.37.47.15.93.31,1.41.49.47.17.9.4,1.27.68.38.28.69.64.92,1.06.24.43.36.97.36,1.63s-.13,1.23-.39,1.71c-.26.48-.59.87-1,1.19-.41.31-.87.54-1.4.69-.52.15-1.05.22-1.58.22-.4,0-.8-.04-1.21-.12-.4-.08-.79-.2-1.15-.36-.36-.16-.7-.36-1.02-.61-.31-.25-.59-.53-.83-.85l1.17-.86c.29.47.7.87,1.22,1.18.52.32,1.14.48,1.85.48.34,0,.69-.05,1.04-.16.35-.11.67-.27.96-.49.28-.22.52-.49.7-.8.18-.32.27-.69.27-1.11,0-.46-.09-.84-.27-1.15-.18-.31-.43-.56-.73-.77-.3-.21-.65-.38-1.04-.51-.39-.14-.8-.27-1.23-.41-.44-.14-.88-.29-1.31-.47-.43-.17-.81-.4-1.15-.68-.34-.28-.61-.62-.82-1.03s-.31-.91-.31-1.51c0-.63.13-1.18.39-1.64.26-.46.59-.84,1.01-1.14.41-.3.87-.52,1.38-.65.5-.14,1-.2,1.49-.2.91,0,1.68.16,2.32.48s1.13.69,1.45,1.13l-1.08.86Z" style="fill:#1245a0; stroke-width:0px;"/><path d="M77.92,7.49c0,1.01-.18,1.93-.53,2.78-.35.84-.84,1.57-1.46,2.19-.62.61-1.36,1.1-2.21,1.44-.85.35-1.77.52-2.76.52s-1.91-.17-2.76-.52c-.85-.35-1.58-.83-2.21-1.44s-1.11-1.34-1.46-2.19c-.35-.84-.53-1.77-.53-2.78s.18-1.93.53-2.78c.35-.84.84-1.57,1.46-2.19s1.36-1.1,2.21-1.44c.85-.35,1.77-.52,2.76-.52s1.91.17,2.76.52c.85.35,1.58.83,2.21,1.44.62.61,1.11,1.34,1.46,2.19.35.84.53,1.77.53,2.78ZM76.48,7.49c0-.77-.13-1.5-.38-2.2-.25-.7-.62-1.31-1.09-1.84-.48-.53-1.06-.95-1.75-1.26-.69-.31-1.46-.47-2.31-.47s-1.63.16-2.31.47c-.69.31-1.27.73-1.74,1.26-.48.53-.84,1.14-1.09,1.84-.25.7-.38,1.43-.38,2.2s.13,1.5.38,2.2c.25.7.62,1.3,1.09,1.83.48.52,1.06.94,1.74,1.25s1.46.47,2.31.47,1.63-.16,2.31-.47c.69-.31,1.27-.73,1.75-1.25.48-.52.84-1.13,1.09-1.83.25-.7.38-1.43.38-2.2Z" style="fill:#1245a0; stroke-width:0px;"/><path d="M81.56,5.37c.03.24.04.5.06.78.01.29.02.52.02.71h.04c.25-.51.66-.92,1.23-1.24s1.16-.48,1.79-.48c1.12,0,1.96.33,2.52.99.56.66.84,1.53.84,2.61v5.35h-1.28v-4.83c0-.46-.04-.88-.11-1.25-.08-.37-.2-.69-.39-.96-.18-.27-.43-.48-.74-.62-.31-.15-.7-.22-1.16-.22-.34,0-.67.07-.99.2-.32.14-.61.34-.86.62-.25.28-.45.63-.6,1.06-.15.43-.23.93-.23,1.52v4.47h-1.28v-6.8c0-.24,0-.54-.02-.91s-.03-.71-.06-1.01h1.23Z" style="fill:#1245a0; stroke-width:0px;"/><path d="M92.26,14.09h-1.28V0h1.28v14.09Z" style="fill:#1245a0; stroke-width:0px;"/><path d="M96.8,2.01c0,.26-.09.48-.28.64-.19.17-.4.25-.62.25s-.43-.08-.62-.25c-.19-.17-.28-.38-.28-.64s.09-.48.28-.64c.19-.17.4-.25.62-.25s.43.08.62.25.28.38.28.64ZM96.53,14.09h-1.28V5.37h1.28v8.72Z" style="fill:#1245a0; stroke-width:0px;"/><path d="M100.66,5.37c.03.24.04.5.06.78.01.29.02.52.02.71h.04c.25-.51.66-.92,1.23-1.24s1.16-.48,1.79-.48c1.12,0,1.96.33,2.52.99.56.66.84,1.53.84,2.61v5.35h-1.28v-4.83c0-.46-.04-.88-.11-1.25-.08-.37-.2-.69-.39-.96-.18-.27-.43-.48-.74-.62-.31-.15-.7-.22-1.16-.22-.34,0-.67.07-.99.2-.32.14-.61.34-.86.62-.25.28-.45.63-.6,1.06-.15.43-.23.93-.23,1.52v4.47h-1.28v-6.8c0-.24,0-.54-.02-.91s-.03-.71-.06-1.01h1.23Z" style="fill:#1245a0; stroke-width:0px;"/><path d="M118.16,9.47v.28c0,.1,0,.2-.02.32h-7.3c.01.43.1.84.26,1.23.16.39.39.72.68,1.01.29.29.63.51,1.02.68s.81.25,1.26.25c.66,0,1.24-.15,1.72-.46.48-.3.85-.66,1.1-1.05l.96.75c-.53.66-1.11,1.13-1.75,1.42-.64.29-1.32.43-2.05.43-.65,0-1.26-.12-1.82-.34-.56-.23-1.04-.55-1.44-.96s-.72-.89-.95-1.45-.35-1.17-.35-1.83.11-1.27.34-1.83c.23-.56.54-1.04.94-1.45s.87-.73,1.42-.96c.54-.23,1.13-.34,1.75-.34.69,0,1.3.11,1.83.34.53.23.97.54,1.32.93.35.39.62.85.8,1.37.18.52.27,1.08.27,1.68ZM116.86,9.06c-.04-.82-.3-1.5-.8-2.04-.5-.54-1.2-.81-2.12-.81-.43,0-.82.08-1.18.23-.36.16-.68.37-.96.63-.28.27-.5.57-.66.91-.16.34-.26.7-.28,1.07h6Z" style="fill:#1245a0; stroke-width:0px;"/><path d="M58.13,1.58c0-.13.02-.25.07-.36s.12-.21.2-.29.18-.15.29-.2c.11-.05.23-.07.36-.07s.25.02.36.07c.11.05.21.11.29.2.08.08.15.18.2.29s.07.23.07.36-.02.25-.07.36-.12.21-.2.29c-.08.08-.18.15-.29.2-.11.05-.23.07-.36.07s-.25-.02-.36-.07-.21-.11-.29-.2-.15-.18-.2-.29-.07-.23-.07-.36ZM58.28,1.59c0,.11.02.21.06.3s.1.18.17.25.15.13.25.17c.09.04.2.06.3.06s.21-.02.3-.06c.09-.04.18-.1.25-.17s.13-.15.17-.25.06-.19.06-.3-.02-.21-.06-.3-.1-.18-.17-.25c-.07-.07-.15-.13-.25-.17-.09-.04-.2-.06-.3-.06s-.21.02-.3.06c-.09.04-.18.1-.25.17-.07.07-.13.15-.17.25s-.06.2-.06.3ZM58.7,1.06h.37s.1,0,.14.02c.05.01.09.03.12.05s.07.06.09.09c.02.04.03.09.03.14,0,.08-.02.14-.07.18s-.1.08-.17.1l.28.45h-.23l-.24-.43h-.13v.43h-.19v-1.04ZM59.04,1.52c.05,0,.11-.01.15-.03.05-.02.07-.06.07-.13,0-.06-.02-.1-.07-.12s-.09-.03-.14-.03h-.17v.3h.15Z" style="fill:#1245a0; stroke-width:0px;"/></svg>